<svg xmlns="http://www.w3.org/2000/svg" viewBox="0 0 19.2 19.2"><defs><style>.cls-1{fill:#333;}</style></defs><title>Google</title><g id="Layer_2" data-name="Layer 2"><g id="Google_w_circle" data-name="Google+ w/ circle"><path class="cls-1" d="M9.6,0a9.6,9.6,0,1,0,9.6,9.6A9.6,9.6,0,0,0,9.6,0ZM9.05,13.72a3.71,3.71,0,0,1-1.51.33H7.41c-.39,0-2.34-.09-2.34-1.87S7.2,10.3,7.85,10.3h0a1.46,1.46,0,0,1-.29-1H7.43A2.16,2.16,0,0,1,6.3,9a1.8,1.8,0,0,1-.75-1.62c0-2.13,2.33-2.22,2.35-2.22h2.33v0c0,.26-.47.31-.79.36a1.29,1.29,0,0,0-.38.07c.59.31.68.8.68,1.54a1.94,1.94,0,0,1-.68,1.59c-.21.19-.38.35-.38.55s.23.4.5.64a2.42,2.42,0,0,1,1.05,1.81A2,2,0,0,1,9.05,13.72Zm5-4.12H12.6v1.5h-1V9.6H10.1v-1h1.5V7.1h1V8.6h1.5ZM7.82,10.75H7.67a1.86,1.86,0,0,0-1.15.46,1.19,1.19,0,0,0-.43.95c0,.71.81,1.12,1.74,1.06s1.52-.6,1.47-1.31A1.34,1.34,0,0,0,7.82,10.75ZM8.7,6.88c-.24-.85-.63-1.1-1.24-1.1a.58.58,0,0,0-.19,0,.88.88,0,0,0-.59.62,1.76,1.76,0,0,0,0,1.07c.19.7.69,1.2,1.19,1.2a.62.62,0,0,0,.19,0A1.45,1.45,0,0,0,8.7,6.88Z"/></g></g></svg>