<svg xmlns="http://www.w3.org/2000/svg" viewBox="0 0 19.2 19.2"><defs><style>.cls-1{fill:#cc9;}</style></defs><title>Instagram-Tan</title><g id="Layer_2" data-name="Layer 2"><g id="Instagram_w_circle" data-name="Instagram w circle"><path class="cls-1" d="M13.5,6.65a1.71,1.71,0,0,0-.95-1,2.69,2.69,0,0,0-.93-.17c-.53,0-.68,0-2,0s-1.49,0-2,0a2.69,2.69,0,0,0-.93.17,1.71,1.71,0,0,0-1,1,2.69,2.69,0,0,0-.17.93c0,.53,0,.69,0,2s0,1.49,0,2a2.69,2.69,0,0,0,.17.93,1.71,1.71,0,0,0,1,.95,2.69,2.69,0,0,0,.93.17c.53,0,.68,0,2,0s1.49,0,2,0a2.69,2.69,0,0,0,.93-.17,1.71,1.71,0,0,0,.95-.95,2.69,2.69,0,0,0,.17-.93c0-.53,0-.68,0-2s0-1.49,0-2A2.69,2.69,0,0,0,13.5,6.65ZM9.6,12.17A2.57,2.57,0,1,1,12.17,9.6h0A2.57,2.57,0,0,1,9.6,12.17Zm2.67-4.64a.6.6,0,1,1,.6-.6.6.6,0,0,1-.6.6Z"/><circle class="cls-1" cx="9.6" cy="9.6" r="1.67"/><path class="cls-1" d="M9.6,0a9.6,9.6,0,1,0,9.6,9.6h0A9.6,9.6,0,0,0,9.6,0Zm5,11.66a3.88,3.88,0,0,1-.23,1.22,2.56,2.56,0,0,1-1.46,1.46,3.88,3.88,0,0,1-1.22.23c-.53,0-.7,0-2.06,0s-1.53,0-2.06,0a3.88,3.88,0,0,1-1.22-.23,2.56,2.56,0,0,1-1.46-1.46,3.88,3.88,0,0,1-.23-1.22c0-.53,0-.7,0-2.06s0-1.53,0-2.06a3.88,3.88,0,0,1,.23-1.22A2.56,2.56,0,0,1,6.32,4.86a3.88,3.88,0,0,1,1.22-.23c.53,0,.7,0,2.06,0s1.53,0,2.06,0a3.88,3.88,0,0,1,1.22.23,2.56,2.56,0,0,1,1.46,1.46,3.88,3.88,0,0,1,.23,1.22c0,.53,0,.7,0,2.06s0,1.53,0,2.06Z"/></g></g></svg>