<svg xmlns="http://www.w3.org/2000/svg" viewBox="0 0 19.2 19.2"><defs><style>.cls-1{fill:#cc9;}</style></defs><title>Pinteresttan</title><g id="Layer_2" data-name="Layer 2"><g id="Pinterest_w_circle" data-name="Pinterest w/ circle"><path class="cls-1" d="M9.6,0a9.6,9.6,0,1,0,9.6,9.6A9.6,9.6,0,0,0,9.6,0Zm.66,11.87a2.69,2.69,0,0,1-1.36-.64c-.26,1.39-.59,2.73-1.55,3.42-.29-2.1.44-3.68.78-5.36-.58-1,.07-2.93,1.29-2.45,1.5.6-1.3,3.62.58,4s2.77-3.41,1.55-4.64c-1.76-1.79-5.13,0-4.71,2.51.1.63.74.82.25,1.68C6,10.14,5.63,9.25,5.67,8.07A3.8,3.8,0,0,1,9.09,4.58c2.13-.23,4.12.78,4.4,2.78C13.79,9.61,12.53,12.05,10.26,11.87Z"/></g></g></svg>