<?xml version="1.0" encoding="utf-8"?>
<!-- Generator: Adobe Illustrator 22.0.1, SVG Export Plug-In . SVG Version: 6.00 Build 0)  -->
<svg version="1.1" id="Layer_1" xmlns="http://www.w3.org/2000/svg" xmlns:xlink="http://www.w3.org/1999/xlink" x="0px" y="0px"
	 viewBox="0 0 16 16" style="enable-background:new 0 0 16 16;" xml:space="preserve">
<title>book</title>
<desc>Created with Sketch.</desc>
<g id="Octicons">
	<g id="book">
		<path id="Shape" d="M3,5h4v1H3V5L3,5z M3,8h4V7H3V8L3,8z M3,10h4V9H3V10L3,10z M14,5h-4v1h4V5L14,5z M14,7h-4v1h4V7L14,7z M14,9
			h-4v1h4V9L14,9z M16,3v9c0,0.6-0.4,1-1,1H9.5l-1,1l-1-1H2c-0.5,0-1-0.4-1-1V3c0-0.5,0.5-1,1-1h5.5l1,1l1-1H15C15.6,2,16,2.5,16,3
			L16,3z M8,3.5L7.5,3H2v9h6V3.5L8,3.5z M15,3H9.5L9,3.5V12h6V3L15,3z"/>
	</g>
</g>
</svg>
