<svg xmlns="http://www.w3.org/2000/svg" viewBox="0 0 15 12"><defs><style>.cls-1{fill:#cc9;}</style></defs><title>Book-Tan</title><g id="Layer_2" data-name="Layer 2"><g id="Layer_1-2" data-name="Layer 1"><g id="Octicons"><g id="book"><path id="Shape" class="cls-1" d="M2,3H6V4H2V3ZM2,6H6V5H2V6ZM2,8H6V7H2V8ZM13,3H9V4h4V3Zm0,2H9V6h4V5Zm0,2H9V8h4V7Zm2-6v9a1,1,0,0,1-1,1H8.5l-1,1-1-1H1a1,1,0,0,1-1-1V1A1,1,0,0,1,1,0H6.5l1,1,1-1H14a1,1,0,0,1,1,1ZM7,1.5,6.5,1H1v9H7V1.5ZM14,1H8.5L8,1.5V10h6V1Z"/></g></g></g></g></svg>