<svg xmlns="http://www.w3.org/2000/svg" viewBox="0 0 1114.06 758.75"><defs><style>.cls-1{fill:#cc9;}.cls-2{fill:#fff;}</style></defs><title>Logo-Tan-White_2</title><g id="Layer_2" data-name="Layer 2"><g id="Layer_1-2" data-name="Layer 1"><g id="Layer_2-2" data-name="Layer 2"><g id="Layer_1-2-2" data-name="Layer 1-2"><path class="cls-1" d="M851.09,152.31c-.58-3.28-3.11-5.6-7.56-7s-8.16-1.8-11.06-1.29q-9.83,1.74-18.69,16.11t-8.33,22.15a7.56,7.56,0,0,1,1.49,3.67q.43,2.46-1.86,12.58T792.88,245q-17.53,1.13-46.47-.24-14.24-.87-21.56-1,4.56-18.81,10.23-48.09T741.65,162c-.2-2.21-3.12-2.83-8.76-1.82s-8.45,2.61-8.42,4.86A74.84,74.84,0,0,1,710,194q-10.49,13.1-22,16.27c-2.12.74-3,1.84-2.66,3.27s1.42,1.92,3.2,1.41q20.63-5.88,32.83-21.27-4.08,31.11-7.54,49.73a157,157,0,0,0-17.08.48l-16.94,1.3a82.84,82.84,0,0,0-21.35,6.59q-7.76,3.9-12.47,13t-1.78,25.78a21.55,21.55,0,0,0,4.78,9.57,3.71,3.71,0,0,0,4.55,1c1.64-.76,1.76-1.95.34-3.58a10.71,10.71,0,0,1-2.59-5.17,14,14,0,0,1,.35-6q4-23.79,38.62-29.9c2.19-.38,4.56-.7,7.14-1L712,254q-13.92,69.82-37.91,98.93h0c-3,3.23-6.23,6.45-9.61,9.71h0q-7.61,7.29-16.41,14.62l-1,.72h0l-1.32,1Q630.7,390,621.3,390q-14,0-14-25.23,0-32.61,20.57-83.8,16.68-41.89,20-55.09t3.29-20.56a22.16,22.16,0,0,0-4.65-13.58q-4.65-6.21-13.58-6.2-15.12,0-30.26,15.9-46.2,50.06-90.82,125Q499.43,347,496.15,352t-4.85,7.57c-1,1.68-1.75,2.46-2.14,2.33s.58-3.94,2.91-11.44Q513,286.84,513,252.7q0-22.89-10.08-40-11.66-20.19-42.3-20.17h-5.43q-11.44.58-30.37,12Q407.53,215,384,234.53q4.15-9.3,7.89-18.78a444.52,444.52,0,0,0,24-83.69c1.83-10.09,3.39-20.22,6.82-30.54,1.8-5.38,1.85-10-4.46-11.8l-3.08.21c-5.4,3.93-6.28,8.56-5.51,13.34a77.11,77.11,0,0,1,.15,21.67,334.85,334.85,0,0,1-7,39.64c-.26,1.1-.54,2.19-.82,3.28a387.88,387.88,0,0,1-18.59,54.69c-4.57,10.8-9.68,21.34-15.19,31.64-.21.4-.5.78-.75,1.16.13-2.41.87-4.67.83-7-.14-6.74,2.74-12.31,8.13-17.07s6.91-10.45,5.93-16.69c-.07-.39,0-.78-.1-1.17-.79-4.3.76-8,3.37-11.65,4.06-5.72,8.67-11.59,6.88-18.74-1.49-5.84,0-10.77,4.28-15.92l.91-1.07c7.76-8-.25-51.07-1.59-54.31-.55-2.93-2.67-4.93-6.57-5.65-3.16-.59-4.7,0-6.06,2.34-1.94,3.31-.77,6.13,1.18,9,2.3,3,10,21.07,11.33,27.2,1.83,7.63.68,15.14-6.42,21.39a19,19,0,0,0-1.51,1.47,12.18,12.18,0,0,0-2.9,11.77c.37,1.58.33,3.2.74,4.78,1.18,4.53-.07,8.66-3.8,12.24-1.58,1.53-2.8,3.27-4.24,4.87-3,3.25-4.41,6.71-3.74,10.82.43,2.58.14,5.19.53,7.79.61,4.12-1.2,7.48-4.67,10.28-.93.75-1.85,1.48-2.78,2.24-2.85,2.28-4.91,4.81-5.3,8.13a79.14,79.14,0,0,1-1.9,11.44,16.84,16.84,0,0,1-3.65,7.31c-.39.41-.8.81-1.19,1.22-.74.8-1.49,1.57-2.22,2.36q-22.67,21-54.73,55.66-33.56,36.27-49.46,61.11-9.3,14.75-9.31,26.77,0,20.16,19.78,20.17,31,0,66-65.56,12.41-23.28,28.32-57.82,11.66-26.35,15.14-36.46Q438.1,203,464.48,203q28.32,0,28.33,65.58,0,18.6-4.46,47.71A254.56,254.56,0,0,1,473.8,371a8.76,8.76,0,0,0-.39,3.3c0,1.68,1.16,4.39,3.49,8.15s4.53,5.63,6.6,5.63,4.12-2.2,6.2-6.6q15.14-31.44,52.57-86.52t67.31-80.69q8.16-7,12-7a10,10,0,0,1,6.21,1.75c1.55,1.16,2.32,3.22,2.33,6.2a31.15,31.15,0,0,1-2.33,10.67q-2.32,6.21-12.41,31.43-3.12,7-7.77,20T600.05,300q-2.91,9.72-7.57,27.55a145.82,145.82,0,0,0-4.59,36.91q0,36.49,25.61,36.87a46,46,0,0,0,15.14-2.72c9.61-3,39.48-19.9,56.2-47.55L694,335.79q15.9-30.33,28.64-82.3l69.27-2.94q-5.86,21-5.51,39a70.88,70.88,0,0,0,.69,10.29,67.8,67.8,0,0,0,1.67,7c.72,2.5,11.83.91,10.26-8-2-11.46,1.46-59.11,21.27-105.9,4.64-11,8.47-20.58,13.33-28.1s9.56-11.67,14.11-12.48a4.75,4.75,0,0,1,2.06.48c1,.38,1.44.22,1.32-.51M344.44,294.17c-.37.57-.71,1.16-1.08,1.73q-7,17.06-18.68,40.05c-1.68,3.32-3.44,6.75-5.26,10.25q-34.91,67.13-59,67.12-7.37,0-7.37-9.89t13.58-28.13q5.76-7.68,15.83-19.6,8.27-9.81,19.47-22.49,3.07-3.51,6.1-6.85l.06-.07q21.26-23.64,39.24-40.61c-.2.55,4.27-6.88,5.28-11.78.49-2.36,2.43-4.48,4.19-6.43,2.25-2.48,5-4.69,7.7-7.29-6.27,11.83-13.23,22.92-20.09,34"/><path class="cls-1" d="M948.53,219.86q0,6.82-5.58,15.8-4.65,8.37-10.38,11.47t-5.73-.62c0-.21,1.13-1.45,3.41-3.72q10.23-9.6,10.22-15.8,0-13.32-26.33-13.32-11.16,0-29.43,4.18a137.1,137.1,0,0,0-35.32,13.48q-19.85,10.85-19.83,18.89,0,6.51,12.08,12.4,6.51,3.09,25.87,10.38t31.29,12.7A85.09,85.09,0,0,1,921.42,301q10.7,9.9,10.69,22t-14.25,26.34q-21.69,20.76-56.39,34.54T802,397.7q-49,0-49-27.57t30-46.79q24.78-17,52-17c4.34,0,6.3.73,5.89,2.17s-3.51,2.22-9.29,2.33-13.23,2.06-22.31,5.88A87.58,87.58,0,0,0,784,333.26q-15.5,13.94-15.49,27.88,0,8.69,8.37,15.49t31.92,6.81A150,150,0,0,0,855.27,376q49.58-16.41,62-35.94,5-7.11,5-12.08,0-14.25-17.36-22.31-20.2-9.24-56.45-21.37a78.92,78.92,0,0,1-23.71-12.23Q815,264.44,815,253.79t11.61-21.07a88.52,88.52,0,0,1,28-16.58q35.32-13.3,59.8-13.32,34.08,0,34.08,17"/><path class="cls-1" d="M733.38,378.26C697.14,491,591.32,572.73,466.73,572.73c-154.4,0-280-125.62-280-280s125.62-280,280-280c103,0,193.12,55.87,241.77,138.88a25.91,25.91,0,0,1,10.66-8.35,294.85,294.85,0,0,0-45-57.87c-114.81-114.25-300.5-113.79-414.75,1-113.82,114.39-113.85,299.25-.05,413.67C374.11,614.61,560,614.44,674.5,499.69a293.63,293.63,0,0,0,66.7-103.25,41.38,41.38,0,0,1-7.82-18.17"/></g></g><g id="Text"><path class="cls-2" d="M35.32,722.49q-14.38,27-27.17,27Q0,749.51,0,741.19q0-5,3.83-11Q10.4,719.93,24.22,705t23.45-23.73l6.07-20.63q-8,7.46-20.81,8.8c-1.07.1-1.63-.22-1.69-1s.41-1.17,1.36-1.43l.64-.16q6.87-.63,14.15-7.19a43.26,43.26,0,0,0,11-15c.42-1.39,2.29-2,5.59-2s4.9.72,4.8,2L57.69,672q21.75-18.39,31.17-18.85H91.1q12.63,0,17.43,8.3a31.88,31.88,0,0,1,4.15,16.42q0,14.07-8.63,40.28c-1,3.12-1.35,4.69-1.17,4.69s.44-.26.88-1,1.09-1.73,2-3.11,3.06-4.9,6.47-10.56q18.38-30.84,37.41-51.46,6.23-6.56,12.47-6.56a6.57,6.57,0,0,1,5.59,2.67,9.16,9.16,0,0,1,1.91,5.6,36.94,36.94,0,0,1-1.35,8.48q-1.37,5.43-8.21,22.69-8.46,21.1-8.46,34.53,0,10.38,5.76,10.38,4.14,0,11-5.27a102.49,102.49,0,0,0,16.92-17.47c.53-.74,1-.9,1.52-.48s.72.78.72,1a1,1,0,0,1-.32.72,75.41,75.41,0,0,1-9.59,11.5Q166.9,735.93,160.35,738a18.75,18.75,0,0,1-6.24,1.17q-10.56-.17-10.55-15.24a59.91,59.91,0,0,1,1.91-15.25q1.92-7.35,3.12-11.35t3.12-9.38c1.27-3.52,2.34-6.31,3.19-8.21q4.17-10.4,5.11-12.9a12.71,12.71,0,0,0,1-4.39,3,3,0,0,0-1-2.56,4.15,4.15,0,0,0-2.56-.71c-1.06,0-2.71.94-4.95,2.87q-12.3,10.55-27.73,33.24t-21.66,35.65c-.85,1.81-1.7,2.71-2.55,2.71s-1.76-.77-2.71-2.34a7.8,7.8,0,0,1-1.45-3.37,3.63,3.63,0,0,1,.16-1.35,104.44,104.44,0,0,0,6-22.54,136.11,136.11,0,0,0,1.81-19.53q0-27-11.73-27-10.87,0-39.47,26.21-1.44,4.15-6.24,15Q40.38,713,35.26,722.58M8.63,744.07q9.92,0,24.3-27.66a224.86,224.86,0,0,0,11.5-24.87q-8.48,8-18.7,19.59T11.19,728.41Q5.6,735.91,5.59,740c0,2.72,1,4.07,3,4.07"/><path class="cls-2" d="M190.84,737.19a12.22,12.22,0,0,1-5.51-1.51,14.68,14.68,0,0,1-5.05-4.31,9.89,9.89,0,0,1-2.07-6,13.37,13.37,0,0,1,1.44-6.08,42.08,42.08,0,0,1,10.31-13,92.1,92.1,0,0,1,14.79-10.79q7.67-4.47,12.14-5.59a35.7,35.7,0,0,1,8.72-1.17,12.31,12.31,0,0,1,7.27,2.15c2,1.45,3,3,3,4.57,0,.52,0,.85-.16.95s-.37.05-.8-.16q-1.9-3-7.91-3c-4,0-8.53,1.3-13.58,3.91a70.87,70.87,0,0,0-14.31,9.83,62.33,62.33,0,0,0-9.82,11.91q-4.25,6.63-4.24,9.67c0,3.94,1.12,5.86,3.36,5.86s5.64-1.82,10.22-5.44a202.51,202.51,0,0,0,15.5-14.07Q228.89,699,230,699a12.57,12.57,0,0,1,4.7,1.17c1.8.74,2.34,1.65,1.75,2.71q-8.2,11.51-9.59,23.18a34.66,34.66,0,0,0-.16,3.67,5.33,5.33,0,0,0,1.28,3.68c1.6,1.71,3.78,1.81,6.55.32s6.63-4.48,11.59-8.95a79.77,79.77,0,0,0,11.86-13,1.08,1.08,0,0,1,1.44-.4c.53.27.79.51.79.72q0,2.42-7.58,10.47A95.24,95.24,0,0,1,241,733.52q-7.5,5.6-13.91,5.6-6.07,0-8.21-6.08a18.38,18.38,0,0,1-.48-4.31,42.64,42.64,0,0,1,3-15.25,63.22,63.22,0,0,0-5.86,6.39,95,95,0,0,1-12.23,11.67q-6.94,5.6-12.55,5.59"/><path class="cls-2" d="M296,700.27l.8-3.19c0-2.14-.8-3.2-2.4-3.2q-6.56,0-17.9,10.23t-14.39,20.62a17.54,17.54,0,0,0-.79,4.88,6.21,6.21,0,0,0,1,3.58,6.6,6.6,0,0,0,5.86,2.89,37,37,0,0,0,8.63-1.17,48.38,48.38,0,0,0,17-8.21,89.56,89.56,0,0,0,14.31-14.94,1.24,1.24,0,0,1,1.51-.48c.58.21.88.5.88.88a4.86,4.86,0,0,1-.48,1.67A84.28,84.28,0,0,1,294,730.7a43.3,43.3,0,0,1-19.42,8.39,38.39,38.39,0,0,1-5.86.48q-7.83,0-11.92-3.84a11.46,11.46,0,0,1-4.06-8.47,26.32,26.32,0,0,1,2.24-10.07q4-9.08,17.12-18.61T292.84,689a13.4,13.4,0,0,1,3.67.48c3,1.07,4.48,2.77,4.48,5.11a11.19,11.19,0,0,1-1.76,5.43c-1.18,2-2.06,2.74-2.64,2.16a1.69,1.69,0,0,1-.55-1.84"/><path class="cls-2" d="M343.15,688.93c5.77,0,8.64,2.77,8.64,8.31a10.29,10.29,0,0,1-2.35,7q-4,5.93-12.9,10.32t-15.24,4.86c-1.49.11-2.35-.31-2.35-1.28a.56.56,0,0,1,.29-.75l.12,0a3.62,3.62,0,0,1,.87-.17q3.67-.32,9.44-3.51,10.69-5.78,15.65-11.84a9.56,9.56,0,0,0,2.09-5.51,2.34,2.34,0,0,0-2-2.63,2.52,2.52,0,0,0-.55,0,13.77,13.77,0,0,0-5.59,1.76q-7.51,3.53-15.82,12.23t-10.87,17a16.85,16.85,0,0,0-.8,5,6.93,6.93,0,0,0,2.08,4.69c1.38,1.48,3.51,2.23,6.39,2.23a29.78,29.78,0,0,0,11-2.56q18.06-7.35,27.82-22.21c.63-.85,1.17-1,1.76-.48.42.21.63.48.63.8a2,2,0,0,1-.48,1.17,56.5,56.5,0,0,1-12.15,14.22q-14.22,12.17-27.65,12.15-11.51,0-16.14-6.87a11.71,11.71,0,0,1-1.75-6.55,25.62,25.62,0,0,1,2.07-9.12q4-9.08,17.1-18.69T343.25,689"/><path class="cls-2" d="M480.13,700.43l-39.63-5.28q-24.31,55.13-47.16,62.15a22.81,22.81,0,0,1-7.35,1.45q-12,0-14.7-10.08a5.53,5.53,0,0,1-.17-1.34,8,8,0,0,1,.25-1.76c.15-.71.5-.94,1-.73s1.07,1.17,1.61,3a8.33,8.33,0,0,0,6.07,5.92,35.24,35.24,0,0,0,6.15.63,14.69,14.69,0,0,0,4.56-.63q23.32-7.35,43.63-59.47l-8.48-.48c-1.49-.1-2.87-.15-4.15-.15q-20.3,0-24.93,13.1a8.17,8.17,0,0,0-.8,3.36,6.2,6.2,0,0,0,.95,3.19c.65,1.07.46,1.74-.55,2a2.14,2.14,0,0,1-2.48-1.05,12.37,12.37,0,0,1-1.76-5.86q0-9.74,3.6-14.47a16.6,16.6,0,0,1,8.39-6.16A48.37,48.37,0,0,1,417,686.23l9.74,1a89,89,0,0,1,9.76,1.44q3.83-10.23,9.26-27.5a35.92,35.92,0,0,1-20.77,8.8c-1.07.11-1.63-.27-1.68-1.17s.56-1.39,1.84-1.6q6.87-.63,14.14-7a43.07,43.07,0,0,0,11.12-15q.31-1.9,5.26-1.91t4.8,1.91q-1,2.42-7.11,18.47t-10.64,26.29q4.18.79,12.15,2.71a248.17,248.17,0,0,0,26.38,4.84q9.27-19.68,11.59-25.17c1.55-3.67,2.33-6,2.35-7a4.45,4.45,0,0,0-.48-2.24q.48-4.49,7-11.73c4.32-4.83,8.4-7.27,12.23-7.27a14.22,14.22,0,0,1,6.16,1.83c2.39,1.23,3.59,2.8,3.59,4.69,0,.42-.27.48-.8.15a2.82,2.82,0,0,0-1.11-.48q-4,0-9.28,5.68a79.43,79.43,0,0,0-10.39,14.62q-7.81,13.9-13.91,27.5,13.75,0,18.39-5.76c.53-1,1.07-1.09,1.6-.4s.35,1.7-.57,3-2.89,2.64-6,3.92-8,1.91-14.7,1.91q-7.53,17.75-7.51,27.81,0,7.83,4.55,7.84t13.59-7a91.71,91.71,0,0,0,17-17.74,1.11,1.11,0,0,1,1.44-.24,1,1,0,0,1,.65,1.24.82.82,0,0,1-.09.19,25.66,25.66,0,0,1-2.48,4.08,90.91,90.91,0,0,1-16.42,17A25,25,0,0,1,482,739.43a8.48,8.48,0,0,1-6.63-2.55,8.86,8.86,0,0,1-2.56-4.8,38.34,38.34,0,0,1-.23-4.15,41,41,0,0,1,.63-5.86,78.76,78.76,0,0,1,7-21.58"/><path class="cls-2" d="M520.25,737.19a12.1,12.1,0,0,1-5.51-1.51,14.36,14.36,0,0,1-5-4.31,9.84,9.84,0,0,1-2.08-6,13.37,13.37,0,0,1,1.44-6.08,41.56,41.56,0,0,1,10.31-13,92.1,92.1,0,0,1,14.79-10.79q7.67-4.47,12.15-5.59a35.47,35.47,0,0,1,8.7-1.17,12.34,12.34,0,0,1,7.28,2.15c2,1.45,3,3,3,4.57,0,.52,0,.85-.17.95s-.37.05-.8-.16q-1.9-3-7.91-3t-13.59,3.91a71.08,71.08,0,0,0-14.3,9.83,62.81,62.81,0,0,0-9.84,11.91c-2.81,4.42-4.23,7.65-4.23,9.67,0,3.94,1.17,5.86,3.35,5.86s5.66-1.82,10.24-5.44a202.51,202.51,0,0,0,15.5-14.07Q558.29,699,559.4,699a12.47,12.47,0,0,1,4.69,1.17c1.81.74,2.35,1.65,1.75,2.71q-8.13,11.51-9.58,23.18a34.66,34.66,0,0,0-.16,3.67,5.27,5.27,0,0,0,1.28,3.68c1.59,1.7,3.78,1.81,6.55.32s6.64-4.48,11.59-8.95a79.62,79.62,0,0,0,11.9-13.11,1.09,1.09,0,0,1,1.44-.4c.53.27.8.51.8.72q0,2.41-7.59,10.47a95.15,95.15,0,0,1-11.58,11q-7.53,5.59-13.91,5.6-6.09,0-8.15-6.08a17.37,17.37,0,0,1-.48-4.31,42.8,42.8,0,0,1,3-15.25,61.14,61.14,0,0,0-5.86,6.39,94.37,94.37,0,0,1-12.23,11.67q-7,5.6-12.55,5.59"/><path class="cls-2" d="M600.65,691.17q4,0,4.79,2.55a4,4,0,0,1-.4,2.79c-.48.92-.83,1.63-1,2.16s-.38,1-.48,1.28c-.54,1.07-1.07,2.09-1.6,3q-9.1,18.22-9.59,23.18a34.66,34.66,0,0,0-.16,3.67,5.31,5.31,0,0,0,1.28,3.68c1.5,1.7,3.62,1.81,6.4.32s6.62-4.48,11.58-9a86.69,86.69,0,0,0,12.07-13.11,1.07,1.07,0,0,1,1.43-.4c.54.27.81.53.81.8a1.56,1.56,0,0,1-.33.88,62.18,62.18,0,0,1-8.63,11q-10.23,11-17.1,13.57a20.37,20.37,0,0,1-6.71,1.45A8.22,8.22,0,0,1,584.5,733a10,10,0,0,1-.32-2.72q0-5.6,5.11-16.94-.78,1.75-6.23,8c-.95,1.07-1.7,1.07-2.23,0a1.87,1.87,0,0,1-.17-.88,2.37,2.37,0,0,1,.64-1.36q7.85-9.74,12.31-16.41a2.59,2.59,0,0,1,.32-2.08q3.2-8.94,5.59-9.38Zm12.65-21.26L612,675c0,1-.69,2.51-2.07,4.69s-2.46,3.2-3.19,3.2q-6.88,0-6.88-3.35c0-.42,2.35-2.41,6.88-5.92l2.7-2.08c1.72-1.49,2.78-2.24,3.21-2.24a.56.56,0,0,1,.63.48.49.49,0,0,1,0,.17"/><path class="cls-2" d="M642.52,739.43q-8.21,0-8.21-9.82t14.08-24.22a20.52,20.52,0,0,0,1.59-1.76l1.17-1.59q2.24-3,2.08-3.85l-.48-1.43c-.43-1.27-2.19-2.21-5.28-2.8a42.18,42.18,0,0,0-7.52-.88q-14.37,20.29-16.61,23.17c-1.49,1.92-2.51,2.72-3,2.35a1.35,1.35,0,0,1-.8-1.18,3.89,3.89,0,0,1,1-1.92A130.32,130.32,0,0,0,635.32,693a4.75,4.75,0,0,1-2.87-1.36c-.65-.69-.69-1.85-.17-3.52s2.16-3.87,4.88-6.63a27.38,27.38,0,0,1,7.11-5.6c2-1,3.31-1.55,3.85-1.76a4.75,4.75,0,0,1,1.75-.31c1.28,0,.85,1.91-1.27,5.74l-6.24,9.91c4.79.33,8.9.48,12.31.48l5.58-.15a8.57,8.57,0,0,1,4,.71c.86.49,1.07,1.31.65,2.48q-1.18,3-5.6,8.21A80.69,80.69,0,0,0,645,725a15.51,15.51,0,0,0-1.17,5.28c0,3.1,1.17,4.63,3.35,4.63a11.31,11.31,0,0,0,4.24-1.76q3.11-1.74,10.47-8.38a79.52,79.52,0,0,0,11.83-13,1.17,1.17,0,0,1,1.51-.4c.59.27.88.53.88.8a1.66,1.66,0,0,1-.32.88,62.21,62.21,0,0,1-8.63,11A79,79,0,0,1,655,734.93a19.82,19.82,0,0,1-12.47,4.48"/><path class="cls-2" d="M803.47,651.05a16.06,16.06,0,0,1-2.89,8.15,14.31,14.31,0,0,1-5.34,5.86q-3,1.61-3-.31a12.89,12.89,0,0,1,1.76-1.93q5.28-4.94,5.28-8.15,0-6.87-13.59-6.87a78.22,78.22,0,0,0-33.41,9.11q-10.22,5.6-10.23,9.75,0,3.35,6.24,6.4,3.34,1.59,13.35,5.35T777.81,685a44,44,0,0,1,11.73,7.92q5.52,5.13,5.52,11.34t-7.36,13.59q-11.19,10.71-29.09,17.82t-30.74,7.16q-25.26,0-25.26-14.23t15.5-24.12A46.68,46.68,0,0,1,745,695.65c2.23,0,3.24.37,3,1.17s-1.8,1.17-4.79,1.17a33.11,33.11,0,0,0-11.51,3,45.15,45.15,0,0,0-13.11,8.55q-8,7.15-8,14.35,0,4.47,4.32,8c2.87,2.33,8.36,3.51,16.41,3.51a77.16,77.16,0,0,0,24-3.83q25.57-8.46,32-18.54c1.71-2.45,2.55-4.53,2.55-6.24q0-7.32-8.94-11.5a298.38,298.38,0,0,0-29.1-11A40.71,40.71,0,0,1,739.59,678q-5.05-3.9-5-9.38c0-3.68,2-7.29,6-10.87A45.56,45.56,0,0,1,755,649.17q18.25-6.88,30.88-6.88,17.6,0,17.59,8.8"/><path class="cls-2" d="M827,690.69q12.31-1.19,14.95-1.18t2.64.81c0,.64-1.26,1.3-3.77,2s-8.59,1.57-18.29,2.63c-.54,1-1.17,2.08-1.92,3.36A24.81,24.81,0,0,0,818,703q-9.1,18.22-9.59,23.18a32.18,32.18,0,0,0-.15,3.67,5.3,5.3,0,0,0,1.27,3.68c1.49,1.71,3.62,1.81,6.39.32s6.64-4.48,11.59-9a86,86,0,0,0,12.1-13.12,1.18,1.18,0,0,1,1.61-.31q2.34,1.1-8.32,12.62-10.23,11-17.1,13.58a20.37,20.37,0,0,1-6.71,1.45,8.21,8.21,0,0,1-8.48-6.08,10,10,0,0,1-.32-2.72q0-5.6,5.12-16.94-.79,1.75-6.23,8c-1,1.07-1.71,1.07-2.24,0a2,2,0,0,1-.17-.88,2.35,2.35,0,0,1,.65-1.36q7.83-9.74,12.3-16.41,0-.15,3.52-6.71a17.1,17.1,0,0,1-3.27.32,2.94,2.94,0,0,1-2.49-1.05,2.28,2.28,0,0,1-.15-2.47c.73-1.7,3.56-2.66,8.47-2.87a.65.65,0,0,1,.64-.33l7.93-14.91c.43-.85.9-1.73,1.44-2.64s.93-1.59,1.17-2.07.57-1,.88-1.53a6.21,6.21,0,0,1,.8-1.17l.64-.64c.43-.64,1.68-.95,3.76-.95s3.51.58,4.23,1.74a3.67,3.67,0,0,1,.48,2.17,6.63,6.63,0,0,1-1.17,3.36,8.15,8.15,0,0,1-2.35,2.64,4.48,4.48,0,0,0-1.67,1.86l-7.67,13.42Z"/><path class="cls-2" d="M904,724.09a83.29,83.29,0,0,1-11.19,10.38,23.1,23.1,0,0,1-13.9,4.69,8.07,8.07,0,0,1-3.76-1.36,6.72,6.72,0,0,1-3.12-3.91,16.75,16.75,0,0,1-.79-5,44.6,44.6,0,0,1,3.2-16.42,56,56,0,0,0-4.4,6.8,67.08,67.08,0,0,1-9.59,12.1c-3.79,3.84-7.59,5.75-11.44,5.75a16.92,16.92,0,0,1-6.22-1.44q-6.4-2.87-6.39-10.56,0-9.37,6.46-19.42t8.21-10.63a17.91,17.91,0,0,1,4.55-.64,12.23,12.23,0,0,1,4.39.88c1.5.59,1.28,1.57-.64,3a58,58,0,0,0-15.66,22.37,24.13,24.13,0,0,0-1.75,8.08c0,2.18.55,3.59,1.67,4.24a6.65,6.65,0,0,0,3.27,1q3.84,0,10.48-5.36t18.3-22.28q1.59-2.36,5.59-9.38t4.8-8.21a18.58,18.58,0,0,1,6,1.17c2.35.81,3.06,1.84,2.35,3.12q-7.67,12.79-10.79,18.87a44.31,44.31,0,0,0-4.23,14.22,34.66,34.66,0,0,0-.16,3.67,5.36,5.36,0,0,0,1.28,3.68c1.57,1.71,3.77,1.79,6.63.24a68.32,68.32,0,0,0,11.58-9,78.34,78.34,0,0,0,11.84-13,1.18,1.18,0,0,1,1.52-.4c.58.27.87.53.87.8a1.63,1.63,0,0,1-.32.88A61.82,61.82,0,0,1,904,724"/><path class="cls-2" d="M915.75,706.27a92.1,92.1,0,0,1,14.79-10.79,50.71,50.71,0,0,1,12.15-5.59,35.57,35.57,0,0,1,8.78-1.17,13.32,13.32,0,0,1,8.21,2.88q21.83-50.79,41.77-50.79,6.72,0,9.11,3.84a6.89,6.89,0,0,1,1.17,3.36q0,4-3.43,10.15a67.14,67.14,0,0,1-10.64,13.51,241.49,241.49,0,0,1-20.61,18.14q-13.44,10.77-14.87,12.06a156.71,156.71,0,0,0-8,22.86q-2.88,11-2.87,16.42a16.73,16.73,0,0,0,1.91,8.63,4,4,0,0,0,2.87,2.47,4.22,4.22,0,0,0,3.29-.48,20.27,20.27,0,0,0,2.07-1.51,8.6,8.6,0,0,1,1.76-1.18c.69-.37,1.17-.45,1.52-.24s.26.8-.16,1.76a33.68,33.68,0,0,1-2.35,2.72,10.28,10.28,0,0,1-6,1.76,40.62,40.62,0,0,1-4.55-.17q-7.7-1.21-7.7-11.16A58.56,58.56,0,0,1,946.56,726q3.51-11.19,6.39-18.54-25.58,29.71-36.28,29.72a12.11,12.11,0,0,1-5.52-1.51,14.45,14.45,0,0,1-5-4.31,9.89,9.89,0,0,1-2.07-6,13.24,13.24,0,0,1,1.44-6.08,41.56,41.56,0,0,1,10.31-13m42.59-12.07a16.49,16.49,0,0,0-6.71-1q-4.81,0-12.4,3.92A70.74,70.74,0,0,0,925,707a62.44,62.44,0,0,0-9.84,11.9c-2.81,4.43-4.23,7.66-4.23,9.67q0,5.87,3.35,5.87T924.5,729a329.85,329.85,0,0,0,31.66-29.41Zm46.83-40.28a14.26,14.26,0,0,0,2.1-6.47q0-2.64-2.34-2.64t-6.15,2.87Q981.24,661.12,967,692.6a138.64,138.64,0,0,0,21.74-17.9q11.36-11.19,16.42-20.78"/><path class="cls-2" d="M1037.8,717.86q2.87-5.86,2.87-9.12a14.36,14.36,0,0,0-.71-5,2.62,2.62,0,0,1,.63-3.12,3.93,3.93,0,0,1,3.44-1q3.2.81,3.2,7.19t-7.52,16.79q.16,4.3,4.48,4.32t13.1-9.28c2.78-3.2,4.5-5.27,5.21-6.23s1.29-1.31,1.83-1,.79.51.79.72q0,1.6-5.75,8.31-9.09,11.19-16.14,11.19a6.7,6.7,0,0,1-6.56-4q-3.2,3.36-6.23,6.24a21,21,0,0,1-13.9,5.28,12.06,12.06,0,0,1-7.2-2.08q-5.55-3.35-5.55-12,0-9.37,6.39-19.17a46.72,46.72,0,0,1,8.64-10.07q7.84-6.87,14.86-6.87a11.57,11.57,0,0,1,3.36.48q4.8,1.61,4.79,6.07c0,2.45-.63,3.67-1.91,3.67q-.81-.31-.81-2.34c0-1.93-1-2.89-3.19-2.89q-5.58,0-14.38,10.24T1011,724.78a21.36,21.36,0,0,0-.33,3.91,11.06,11.06,0,0,0,1.45,5c1,1.85,2.74,2.79,5.36,2.79s5.45-1.17,8.54-3.51a38.06,38.06,0,0,0,8.32-8.95l-.48-1a4.52,4.52,0,0,1,.63-4.16,2.9,2.9,0,0,1,3.37-1"/><path class="cls-2" d="M1062.43,737q-2.09,2.34-.88,3.84a3.56,3.56,0,0,0,2.72,1.43,11,11,0,0,0,3.12-.48,33.76,33.76,0,0,0,13.34-8.21q6.48-6.15,6.47-12.54,0-3.51-7.83-7.68-3.67-1.92-4.15-2.23-4.32-2.88-5.44-5.76-2.23,3.84-7.19,11c-.78.86-1.47,1-2.07.56s-.7-1.17-.17-2q6.56-9,8.63-15,1.17-8.78,12.8-15.82t21.24-7q6.09,0,8.56,2.16c1.65,1.44,2.48,2.86,2.48,4.23a12.32,12.32,0,0,1-1.17,4.8,12.51,12.51,0,0,1-4.88,5.11,1,1,0,0,1-1.43-.06,1.45,1.45,0,0,1-.17-.26c-.22-.63.24-1.51,1.36-2.64a8.14,8.14,0,0,0,2.16-4.55c.31-1.92-.54-3.09-2.57-3.51h-.95q-6.24,0-15.58,4.69a38.62,38.62,0,0,0-14.62,12,8.92,8.92,0,0,0-2.09,5.51q0,2.79,3.84,5c1.06.65,2.88,1.66,5.43,3s4.37,2.35,5.43,3a24.52,24.52,0,0,1,3.85,3,6.41,6.41,0,0,1,2.34,3.83c.54,3.21-1,6.72-4.47,10.55q-7.51,8.31-22.38,11.73a29.25,29.25,0,0,1-6.79.8,4.78,4.78,0,0,1-4.69-2.56,3.28,3.28,0,0,1-.48-2c0-.91.84-2.35,2.56-4.39a24.49,24.49,0,0,1,7.67-4.69.72.72,0,0,1,.79.16.71.71,0,0,1,.17.8c-.11.32-.67.69-1.68,1.17a8.71,8.71,0,0,0-3.28,3"/><path class="cls-2" d="M983.92,691.17q4,0,4.79,2.55a3.88,3.88,0,0,1-.4,2.79c-.48.92-.83,1.63-1,2.16s-.37,1-.48,1.28c-.53,1.07-1.07,2.09-1.59,3q-9.12,18.22-9.6,23.18c-.11,1.22-.16,2.45-.15,3.67a5.27,5.27,0,0,0,1.28,3.68c1.49,1.71,3.62,1.81,6.39.32s6.63-4.48,11.59-9a86.15,86.15,0,0,0,12.06-13.11,1.08,1.08,0,0,1,1.44-.4c.53.27.8.53.8.8a1.57,1.57,0,0,1-.31.88,63.17,63.17,0,0,1-8.64,11q-10.23,11-17.1,13.57a20.37,20.37,0,0,1-6.71,1.45,8.21,8.21,0,0,1-8.48-6.08,10.38,10.38,0,0,1-.32-2.72q0-5.6,5.12-16.94-.81,1.75-6.23,8c-1,1.07-1.71,1.07-2.24,0a1.87,1.87,0,0,1-.16-.88,2.28,2.28,0,0,1,.64-1.36q7.83-9.74,12.3-16.41a2.59,2.59,0,0,1,.33-2.08q3.18-8.94,5.59-9.38Zm15.24-14.52-.84,3.35a7,7,0,0,1-1.36,3c-.92,1.4-1.61,2.1-2.1,2.1q-4.5,0-4.5-2.21,0-.42,4.5-3.88l1.78-1.36c1.11-1,1.82-1.46,2.1-1.46a.37.37,0,0,1,.42.32.17.17,0,0,1,0,.1"/></g></g></g></svg>