<?xml version="1.0" encoding="utf-8"?>
<!-- Generator: Adobe Illustrator 22.0.1, SVG Export Plug-In . SVG Version: 6.00 Build 0)  -->
<svg version="1.1" id="Layer_1" xmlns="http://www.w3.org/2000/svg" xmlns:xlink="http://www.w3.org/1999/xlink" x="0px" y="0px"
	 viewBox="0 0 1150 850.3" style="enable-background:new 0 0 1150 850.3;" xml:space="preserve">
<style type="text/css">
	.st0{fill:#CCCC99;}
	.st1{fill:#FFFFFF;}
</style>
<title>Logo-Black</title>
<g id="Layer_2_1_">
	<g id="Layer_1-2">
		<path class="st0" d="M865.1,215.9c-0.6-3.3-3.1-5.6-7.6-7s-8.2-1.8-11.1-1.3c-6.6,1.2-12.8,6.5-18.7,16.1s-8.7,17-8.3,22.1
			c0.8,1.1,1.3,2.3,1.5,3.7c0.3,1.6-0.3,5.8-1.9,12.6c-1.5,6.7-5.6,22.2-12.2,46.5c-11.7,0.8-27.2,0.7-46.5-0.2
			c-9.5-0.6-16.7-0.9-21.6-1c3-12.5,6.5-28.6,10.2-48.1c3.8-19.5,6-30.7,6.6-33.7c-0.2-2.2-3.1-2.8-8.8-1.8s-8.5,2.6-8.4,4.9
			c-2.6,10.6-7.6,20.5-14.5,29c-7,8.7-14.3,14.2-22,16.3c-2.1,0.7-3,1.8-2.7,3.3c0.3,1.4,1.4,1.9,3.2,1.4
			c13.8-3.9,24.7-11,32.8-21.3c-2.7,20.7-5.2,37.3-7.5,49.7c-5.7-0.1-11.4,0-17.1,0.5l-16.9,1.3c-7.4,1.2-14.6,3.4-21.3,6.6
			c-5.2,2.6-9.3,6.9-12.5,13s-3.7,14.7-1.8,25.8c0.8,3.5,2.4,6.8,4.8,9.6c1.1,1.4,3,1.8,4.5,1c1.6-0.8,1.8-2,0.3-3.6
			c-1.3-1.5-2.2-3.2-2.6-5.2c-0.3-2-0.2-4,0.3-6c2.7-15.9,15.5-25.8,38.6-29.9c2.2-0.4,4.6-0.7,7.1-1l14.6-1.6
			c-9.3,46.6-21.9,79.5-37.9,98.9l0,0c-3,3.2-6.2,6.5-9.6,9.7l0,0c-5.1,4.9-10.5,9.7-16.4,14.6l-1,0.7l0,0c-0.4,0.3-0.9,0.7-1.3,1
			c-10.1,7.4-18.2,11.1-24.5,11.1c-9.3,0-14-8.4-14-25.2c0-21.7,6.9-49.7,20.6-83.8c11.1-27.9,17.8-46.3,20-55.1
			c2.2-8.8,3.3-15.7,3.3-20.6c0-4.9-1.6-9.7-4.7-13.6c-3.1-4.1-7.6-6.2-13.6-6.2c-10.1,0-20.2,5.3-30.3,15.9
			c-30.8,33.4-61.1,75-90.8,125c-8.3,13.7-13.5,22.2-15.7,25.6c-2.2,3.4-3.8,5.9-4.9,7.6c-1,1.7-1.8,2.5-2.1,2.3s0.6-3.9,2.9-11.4
			c14-42.4,20.9-75,20.9-97.8c0-15.3-3.4-28.6-10.1-40c-7.8-13.5-21.9-20.2-42.3-20.2h-5.4c-7.6,0.4-17.8,4.4-30.4,12
			c-11.5,7-25.1,17-40.8,30c2.8-6.2,5.4-12.5,7.9-18.8c10.7-27,18.8-55.1,24-83.7c1.8-10.1,3.4-20.2,6.8-30.5
			c1.8-5.4,1.9-10-4.5-11.8l-3.1,0.2c-5.4,3.9-6.3,8.6-5.5,13.3c1.1,7.2,1.1,14.5,0.1,21.7c-1.5,13.3-3.9,26.6-7,39.6
			c-0.3,1.1-0.5,2.2-0.8,3.3c-4.8,18.7-11,36.9-18.6,54.7c-4.6,10.8-9.7,21.3-15.2,31.6c-0.2,0.4-0.5,0.8-0.8,1.2
			c0.1-2.4,0.9-4.7,0.8-7c-0.1-6.7,2.7-12.3,8.1-17.1c5.4-4.8,6.9-10.5,5.9-16.7c-0.1-0.4,0-0.8-0.1-1.2c-0.8-4.3,0.8-8,3.4-11.6
			c4.1-5.7,8.7-11.6,6.9-18.7c-1.5-5.8,0-10.8,4.3-15.9l0.9-1.1c7.8-8-0.2-51.1-1.6-54.3c-0.5-2.9-2.7-4.9-6.6-5.6
			c-3.2-0.6-4.7,0-6.1,2.3c-1.9,3.3-0.8,6.1,1.2,9c2.3,3,10,21.1,11.3,27.2c1.8,7.6,0.7,15.1-6.4,21.4c-0.5,0.5-1,1-1.5,1.5
			c-3,3.1-4.1,7.6-2.9,11.8c0.4,1.6,0.3,3.2,0.7,4.8c1.2,4.5-0.1,8.7-3.8,12.2c-1.6,1.5-2.8,3.3-4.2,4.9c-3,3.2-4.4,6.7-3.7,10.8
			c0.4,2.6,0.1,5.2,0.5,7.8c0.6,4.1-1.2,7.5-4.7,10.3c-0.9,0.8-1.9,1.5-2.8,2.2c-2.9,2.3-4.9,4.8-5.3,8.1c-0.4,3.9-1,7.7-1.9,11.4
			c-0.6,2.7-1.9,5.2-3.6,7.3c-0.4,0.4-0.8,0.8-1.2,1.2c-0.7,0.8-1.5,1.6-2.2,2.4c-15.1,14-33.4,32.6-54.7,55.7
			c-22.4,24.2-38.9,44.6-49.5,61.1c-6.2,9.8-9.3,18.8-9.3,26.8c0,13.4,6.6,20.2,19.8,20.2c20.7,0,42.7-21.9,66-65.6
			c8.3-15.5,17.7-34.8,28.3-57.8c7.8-17.6,12.8-29.7,15.1-36.5c46.3-42.4,78.2-63.6,95.8-63.6c18.9,0,28.3,21.9,28.3,65.6
			c0,12.4-1.5,28.3-4.5,47.7c-2.8,18.7-7.7,37.1-14.5,54.7c-0.3,1.1-0.5,2.2-0.4,3.3c0,1.7,1.2,4.4,3.5,8.1s4.5,5.6,6.6,5.6
			c2.1,0,4.1-2.2,6.2-6.6c10.1-21,27.6-49.8,52.6-86.5s47.4-63.6,67.3-80.7c5.4-4.7,9.4-7,12-7c2.2-0.1,4.4,0.5,6.2,1.8
			c1.5,1.2,2.3,3.2,2.3,6.2c-0.1,3.7-0.9,7.3-2.3,10.7c-1.6,4.1-5.7,14.6-12.4,31.4c-2.1,4.7-4.7,11.3-7.8,20s-5.6,16.2-7.6,22.7
			c-1.9,6.5-4.5,15.7-7.6,27.5c-3.1,12.1-4.6,24.5-4.6,36.9c0,24.3,8.5,36.6,25.6,36.9c5.2-0.1,10.3-1,15.1-2.7
			c9.6-3,39.5-19.9,56.2-47.5l9.2-15.2c10.6-20.2,20.1-47.6,28.6-82.3l69.3-2.9c-3.9,14-5.7,27-5.5,39c0,3.4,0.2,6.9,0.7,10.3
			c0.4,2.4,1,4.7,1.7,7c0.7,2.5,11.8,0.9,10.3-8c-2-11.5,1.5-59.1,21.3-105.9c4.6-11,8.5-20.6,13.3-28.1s9.6-11.7,14.1-12.5
			c0.7,0,1.4,0.2,2.1,0.5C864.8,216.8,865.2,216.6,865.1,215.9 M358.4,357.7c-0.4,0.6-0.7,1.2-1.1,1.7c-4.7,11.4-10.9,24.7-18.7,40
			c-1.7,3.3-3.4,6.8-5.3,10.2c-23.3,44.8-42.9,67.1-59,67.1c-4.9,0-7.4-3.3-7.4-9.9s4.5-16,13.6-28.1c3.8-5.1,9.1-11.7,15.8-19.6
			c5.5-6.5,12-14,19.5-22.5c2-2.3,4.1-4.6,6.1-6.9l0.1-0.1c14.2-15.8,27.2-29.3,39.2-40.6c-0.2,0.5,4.3-6.9,5.3-11.8
			c0.5-2.4,2.4-4.5,4.2-6.4c2.2-2.5,5-4.7,7.7-7.3C372.2,335.6,365.3,346.7,358.4,357.7"/>
		<path class="st0" d="M962.5,283.4c0,4.6-1.9,9.8-5.6,15.8c-3.1,5.6-6.6,9.4-10.4,11.5c-3.8,2.1-5.7,1.9-5.7-0.6
			c0-0.2,1.1-1.5,3.4-3.7c6.8-6.4,10.2-11.7,10.2-15.8c0-8.9-8.8-13.3-26.3-13.3c-7.4,0-17.2,1.4-29.4,4.2
			c-12.3,2.8-24.2,7.4-35.3,13.5c-13.2,7.2-19.8,13.5-19.8,18.9c0,4.3,4,8.5,12.1,12.4c4.3,2.1,13,5.5,25.9,10.4
			c12.9,4.9,23.3,9.1,31.3,12.7c8.3,3.9,16,9,22.6,15.3c7.1,6.6,10.7,13.9,10.7,22c0,8.1-4.8,16.8-14.2,26.3
			c-14.5,13.8-33.3,25.4-56.4,34.5c-23.1,9.2-43,13.8-59.5,13.8c-32.7,0-49-9.2-49-27.6c0-18.4,10-34,30-46.8
			c16.5-11.3,33.9-17,52-17c4.3,0,6.3,0.7,5.9,2.2s-3.5,2.2-9.3,2.3s-13.2,2.1-22.3,5.9c-9.3,4-17.9,9.6-25.3,16.5
			c-10.3,9.3-15.5,18.6-15.5,27.9c0,5.8,2.8,11,8.4,15.5c5.6,4.5,16.2,6.8,31.9,6.8c15.8,0,31.5-2.5,46.5-7.4
			c33.1-10.9,53.7-22.9,62-35.9c3.3-4.7,5-8.8,5-12.1c0-9.5-5.8-16.9-17.4-22.3c-13.5-6.2-32.3-13.3-56.5-21.4
			c-8.5-2.7-16.6-6.8-23.7-12.2c-6.5-5.1-9.8-11.2-9.8-18.3c0-7.1,3.9-14.1,11.6-21.1c8.2-7.2,17.7-12.8,28-16.6
			c23.6-8.9,43.5-13.3,59.8-13.3C951.1,266.4,962.5,272,962.5,283.4"/>
		<path class="st0" d="M747.4,441.8c-36.2,112.7-142.1,194.5-266.6,194.5c-154.4,0-280-125.6-280-280s125.6-280,280-280
			c103,0,193.1,55.9,241.8,138.9c2.8-3.7,6.4-6.6,10.7-8.4c-12.5-21.1-27.7-40.5-45-57.9C573.3,34.7,387.7,35.2,273.4,150
			c-113.8,114.4-113.9,299.2-0.1,413.7C388.1,678.2,574,678,688.5,563.3c29.3-29.3,52-64.5,66.7-103.3
			C751.2,454.7,748.5,448.4,747.4,441.8"/>
	</g>
</g>
<g id="Text">
	<path class="st1" d="M49.3,786.1c-9.6,18-18.6,27-27.2,27c-5.4,0-8.1-2.7-8.1-8.3c0-3.3,1.3-7,3.8-11c4.4-6.8,11.2-15.2,20.4-25.2
		c9.2-10,17-17.9,23.5-23.7l6.1-20.6c-5.3,5-12.3,7.9-20.8,8.8c-1.1,0.1-1.6-0.2-1.7-1c-0.1-0.8,0.4-1.2,1.4-1.4l0.6-0.2
		c4.6-0.4,9.3-2.8,14.1-7.2c4.7-4.2,8.4-9.3,11-15c0.4-1.4,2.3-2,5.6-2c3.3,0.1,4.9,0.7,4.8,2l-11,27.3
		c14.5-12.3,24.9-18.5,31.2-18.9h2.2c8.4,0,14.2,2.8,17.4,8.3c2.8,5,4.3,10.7,4.2,16.4c0,9.4-2.9,22.8-8.6,40.3
		c-1,3.1-1.4,4.7-1.2,4.7c0.2,0,0.4-0.3,0.9-1c0.4-0.7,1.1-1.7,2-3.1c0.9-1.4,3.1-4.9,6.5-10.6c12.3-20.6,24.7-37.7,37.4-51.5
		c4.2-4.4,8.3-6.5,12.5-6.6c2.2-0.1,4.3,0.9,5.6,2.7c1.2,1.6,1.9,3.6,1.9,5.6c-0.1,2.9-0.6,5.7-1.3,8.5c-0.9,3.6-3.7,11.2-8.2,22.7
		c-5.6,14.1-8.5,25.6-8.5,34.5c0,6.9,1.9,10.4,5.8,10.4c2.8,0,6.4-1.8,11-5.3c6.3-5.1,12-11,16.9-17.5c0.5-0.7,1-0.9,1.5-0.5
		c0.5,0.4,0.7,0.8,0.7,1c0,0.3-0.1,0.5-0.3,0.7c-2.8,4.1-6,8-9.6,11.5c-7.1,7.6-12.9,12.1-17.3,13.4c-2,0.7-4.1,1.1-6.2,1.2
		c-7-0.1-10.6-5.2-10.6-15.2c0-5.1,0.6-10.3,1.9-15.2c1.3-4.9,2.3-8.7,3.1-11.4c0.8-2.7,1.8-5.8,3.1-9.4c1.3-3.5,2.3-6.3,3.2-8.2
		c2.8-6.9,4.5-11.2,5.1-12.9c0.6-1.4,0.9-2.9,1-4.4c0.1-1-0.2-1.9-1-2.6c-0.8-0.5-1.6-0.8-2.6-0.7c-1.1,0-2.7,0.9-4.9,2.9
		c-8.2,7-17.5,18.1-27.7,33.2c-10.3,15.1-17.5,27-21.7,35.6c-0.9,1.8-1.7,2.7-2.6,2.7c-0.9,0-1.8-0.8-2.7-2.3
		c-0.7-1-1.2-2.1-1.4-3.4c0-0.5,0-0.9,0.2-1.3c2.8-7.3,4.8-14.8,6-22.5c1.1-6.5,1.7-13,1.8-19.5c0-18-3.9-27-11.7-27
		c-7.2,0-20.4,8.7-39.5,26.2c-1,2.8-3,7.8-6.2,15C56.6,771.8,52.7,779.8,49.3,786.1 M22.6,807.6c6.6,0,14.7-9.2,24.3-27.7
		c4.3-8,8.2-16.4,11.5-24.9c-5.7,5.3-11.9,11.9-18.7,19.6c-6.8,7.7-11.7,13.5-14.5,17.3c-3.7,5-5.6,8.9-5.6,11.6
		S20.6,807.6,22.6,807.6"/>
	<path class="st1" d="M204.8,800.8c-1.9-0.1-3.8-0.6-5.5-1.5c-2-1-3.7-2.5-5-4.3c-1.3-1.7-2.1-3.8-2.1-6c0-2.1,0.5-4.2,1.4-6.1
		c2.5-5,6-9.4,10.3-13c4.6-4.1,9.5-7.7,14.8-10.8c5.1-3,9.2-4.9,12.1-5.6c2.8-0.7,5.8-1.1,8.7-1.2c2.6-0.1,5.1,0.7,7.3,2.2
		c2,1.4,3,3,3,4.6c0,0.5-0.1,0.9-0.2,0.9c-0.1,0.1-0.4,0.1-0.8-0.2c-1.3-2-3.9-3-7.9-3c-4,0-8.5,1.3-13.6,3.9
		c-5.2,2.7-10,6-14.3,9.8c-3.8,3.5-7.1,7.6-9.8,11.9c-2.8,4.4-4.2,7.6-4.2,9.7c0,3.9,1.1,5.9,3.4,5.9s5.6-1.8,10.2-5.4
		c5.4-4.4,10.6-9.1,15.5-14.1c9.8-10.6,15.1-15.8,15.8-15.8c1.6,0.1,3.2,0.5,4.7,1.2c1.8,0.7,2.3,1.7,1.8,2.7
		c-5.5,7.7-8.7,15.4-9.6,23.2c-0.1,1.2-0.2,2.4-0.2,3.7c-0.1,1.3,0.4,2.7,1.3,3.7c1.6,1.7,3.8,1.8,6.6,0.3c2.8-1.5,6.6-4.5,11.6-8.9
		c4.4-3.9,8.4-8.3,11.9-13c0.3-0.5,0.9-0.7,1.4-0.4c0.5,0.3,0.8,0.5,0.8,0.7c0,1.6-2.5,5.1-7.6,10.5c-3.5,4-7.4,7.6-11.6,11
		c-5,3.7-9.6,5.6-13.9,5.6c-4,0-6.8-2-8.2-6.1c-0.3-1.4-0.5-2.9-0.5-4.3c0.1-5.2,1.1-10.4,3-15.2c-2.1,2-4.1,4.1-5.9,6.4
		c-3.7,4.2-7.8,8.2-12.2,11.7C212.8,798.8,208.6,800.7,204.8,800.8"/>
	<path class="st1" d="M310,763.8l0.8-3.2c0-2.1-0.8-3.2-2.4-3.2c-4.4,0-10.3,3.4-17.9,10.2c-7.6,6.8-12.4,13.7-14.4,20.6
		c-0.5,1.6-0.8,3.2-0.8,4.9c0,1.3,0.3,2.5,1,3.6c1.3,1.9,3.5,3,5.9,2.9c2.9,0,5.8-0.4,8.6-1.2c6.2-1.6,11.9-4.4,17-8.2
		c5.3-4.4,10.1-9.4,14.3-14.9c0.3-0.5,1-0.7,1.5-0.5c0.6,0.2,0.9,0.5,0.9,0.9c-0.1,0.6-0.2,1.2-0.5,1.7c-4.5,6.3-10,12-16.1,16.9
		c-5.7,4.4-12.4,7.2-19.4,8.4c-1.9,0.3-3.9,0.5-5.9,0.5c-5.2,0-9.2-1.3-11.9-3.8c-2.5-2.1-4-5.2-4.1-8.5c0.1-3.5,0.8-6.9,2.2-10.1
		c2.7-6,8.4-12.2,17.1-18.6c8.8-6.4,15.7-9.6,20.8-9.6c1.2,0,2.5,0.2,3.7,0.5c3,1.1,4.5,2.8,4.5,5.1c-0.1,1.9-0.7,3.8-1.8,5.4
		c-1.2,2-2.1,2.7-2.6,2.2C310,765.3,309.8,764.6,310,763.8"/>
	<path class="st1" d="M357.2,752.5c5.8,0,8.6,2.8,8.6,8.3c0.1,2.6-0.7,5.1-2.3,7c-2.7,3.9-7,7.4-12.9,10.3c-5.9,2.9-11,4.6-15.2,4.9
		c-1.5,0.1-2.3-0.3-2.3-1.3c-0.1-0.3,0-0.6,0.3-0.8c0,0,0.1,0,0.1,0c0.3-0.1,0.6-0.1,0.9-0.2c2.5-0.2,5.6-1.4,9.4-3.5
		c7.1-3.8,12.3-7.8,15.7-11.8c1.3-1.6,2-3.5,2.1-5.5c0.2-1.3-0.7-2.5-2-2.6c-0.2,0-0.4,0-0.5,0c-2,0.2-3.9,0.8-5.6,1.8
		c-5,2.3-10.3,6.4-15.8,12.2c-5.5,5.8-9.2,11.5-10.9,17c-0.5,1.6-0.8,3.3-0.8,5c0.1,1.8,0.8,3.5,2.1,4.7c1.4,1.5,3.5,2.2,6.4,2.2
		c3.8-0.1,7.6-1,11-2.6c12-4.9,21.3-12.3,27.8-22.2c0.6-0.9,1.2-1,1.8-0.5c0.4,0.2,0.6,0.5,0.6,0.8c0,0.4-0.2,0.8-0.5,1.2
		c-3.2,5.4-7.3,10.2-12.1,14.2c-9.5,8.1-18.7,12.2-27.7,12.1c-7.7,0-13-2.3-16.1-6.9c-1.2-2-1.8-4.2-1.8-6.6
		c0.1-3.1,0.8-6.2,2.1-9.1c2.7-6.1,8.4-12.3,17.1-18.7C345.2,755.7,352.1,752.5,357.2,752.5"/>
	<path class="st1" d="M494.1,764l-39.6-5.3c-16.2,36.7-31.9,57.5-47.2,62.2c-2.4,0.9-4.8,1.4-7.4,1.4c-8,0-12.9-3.4-14.7-10.1
		c-0.1-0.4-0.2-0.9-0.2-1.3c0-0.6,0.1-1.2,0.2-1.8c0.2-0.7,0.5-0.9,1-0.7s1.1,1.2,1.6,3c0.8,2.9,3.1,5.2,6.1,5.9
		c2,0.4,4.1,0.6,6.1,0.6c1.5,0,3.1-0.2,4.6-0.6c15.5-4.9,30.1-24.7,43.6-59.5l-8.5-0.5c-1.5-0.1-2.9-0.2-4.2-0.2
		c-13.5,0-21.8,4.4-24.9,13.1c-0.5,1.1-0.8,2.2-0.8,3.4c0,1.1,0.3,2.2,0.9,3.2c0.6,1.1,0.5,1.7-0.6,2c-1,0.3-2-0.2-2.5-1
		c-1.1-1.8-1.7-3.8-1.8-5.9c0-6.5,1.2-11.3,3.6-14.5c2.1-2.9,5-5.1,8.4-6.2c4.2-1.1,8.5-1.6,12.8-1.6l9.7,1c3.3,0.3,6.5,0.8,9.8,1.4
		c2.6-6.8,5.6-16,9.3-27.5c-5.8,5.1-13.1,8.2-20.8,8.8c-1.1,0.1-1.6-0.3-1.7-1.2c-0.1-0.9,0.6-1.4,1.8-1.6c4.6-0.4,9.3-2.8,14.1-7
		c4.8-4.1,8.6-9.3,11.1-15c0.2-1.3,2-1.9,5.3-1.9c3.3,0,4.9,0.6,4.8,1.9c-0.6,1.6-3,7.8-7.1,18.5c-4.1,10.7-7.6,19.5-10.6,26.3
		c2.8,0.5,6.8,1.4,12.1,2.7c8.7,2.1,17.5,3.7,26.4,4.8c6.2-13.1,10-21.5,11.6-25.2c1.5-3.7,2.3-6,2.3-7c0-0.8-0.1-1.5-0.5-2.2
		c0.3-3,2.6-6.9,7-11.7c4.3-4.8,8.4-7.3,12.2-7.3c2.2,0.1,4.3,0.8,6.2,1.8c2.4,1.2,3.6,2.8,3.6,4.7c0,0.4-0.3,0.5-0.8,0.2
		c-0.3-0.2-0.7-0.4-1.1-0.5c-2.7,0-5.8,1.9-9.3,5.7c-4,4.5-7.5,9.4-10.4,14.6c-5.2,9.3-9.9,18.4-13.9,27.5c9.2,0,15.3-1.9,18.4-5.8
		c0.5-1,1.1-1.1,1.6-0.4c0.5,0.7,0.4,1.7-0.6,3c-0.9,1.3-2.9,2.6-6,3.9c-3.1,1.3-8,1.9-14.7,1.9c-5,11.8-7.5,21.1-7.5,27.8
		c0,5.2,1.5,7.8,4.5,7.8c3,0,7.6-2.3,13.6-7c6.4-5.1,12.2-11.1,17-17.7c0.4-0.4,1-0.5,1.4-0.2c0.5,0.2,0.8,0.7,0.6,1.2
		c0,0.1-0.1,0.1-0.1,0.2c-0.7,1.4-1.5,2.8-2.5,4.1c-4.7,6.3-10.2,12-16.4,16.9c-4.4,3.6-10,5.6-15.7,5.6c-2.5,0.2-4.9-0.8-6.6-2.6
		c-1.3-1.3-2.2-3-2.6-4.8c-0.2-1.4-0.2-2.8-0.2-4.2c0.1-2,0.3-3.9,0.6-5.9C488.5,778.1,490.8,770.9,494.1,764"/>
	<path class="st1" d="M534.2,800.8c-1.9-0.1-3.8-0.6-5.5-1.5c-2-1-3.7-2.5-5-4.3c-1.3-1.7-2.1-3.8-2.1-6c0-2.1,0.5-4.2,1.4-6.1
		c2.5-5,6-9.4,10.3-13c4.6-4.1,9.5-7.7,14.8-10.8c5.1-3,9.2-4.9,12.1-5.6c2.8-0.7,5.8-1.1,8.7-1.2c2.6-0.1,5.1,0.7,7.3,2.2
		c2,1.4,3,3,3,4.6c0,0.5,0,0.9-0.2,0.9c-0.2,0.1-0.4,0.1-0.8-0.2c-1.3-2-3.9-3-7.9-3c-4,0-8.5,1.3-13.6,3.9c-5.2,2.7-10,6-14.3,9.8
		c-3.8,3.5-7.1,7.6-9.8,11.9c-2.8,4.4-4.2,7.6-4.2,9.7c0,3.9,1.2,5.9,3.4,5.9c2.2,0,5.7-1.8,10.2-5.4c5.4-4.4,10.6-9.1,15.5-14.1
		c9.8-10.6,15.1-15.8,15.8-15.8c1.6,0.1,3.2,0.5,4.7,1.2c1.8,0.7,2.3,1.7,1.7,2.7c-5.4,7.7-8.6,15.4-9.6,23.2
		c-0.1,1.2-0.2,2.4-0.2,3.7c-0.1,1.3,0.4,2.7,1.3,3.7c1.6,1.7,3.8,1.8,6.6,0.3c2.8-1.5,6.6-4.5,11.6-8.9c4.4-3.9,8.4-8.3,11.9-13.1
		c0.3-0.5,0.9-0.7,1.4-0.4c0.5,0.3,0.8,0.5,0.8,0.7c0,1.6-2.5,5.1-7.6,10.5c-3.5,4-7.4,7.6-11.6,11c-5,3.7-9.7,5.6-13.9,5.6
		c-4.1,0-6.8-2-8.1-6.1c-0.3-1.4-0.5-2.9-0.5-4.3c0.1-5.2,1.1-10.4,3-15.2c-2.1,2-4.1,4.1-5.9,6.4c-3.7,4.2-7.8,8.2-12.2,11.7
		c-4.6,3.7-8.8,5.6-12.5,5.6"/>
	<path class="st1" d="M614.6,754.7c2.7,0,4.3,0.9,4.8,2.6c0.2,0.9,0.1,1.9-0.4,2.8c-0.5,0.9-0.8,1.6-1,2.2c-0.2,0.5-0.4,1-0.5,1.3
		c-0.5,1.1-1.1,2.1-1.6,3c-6.1,12.1-9.3,19.9-9.6,23.2c-0.1,1.2-0.2,2.4-0.2,3.7c-0.1,1.3,0.4,2.7,1.3,3.7c1.5,1.7,3.6,1.8,6.4,0.3
		c2.8-1.5,6.6-4.5,11.6-8.9c4.5-3.9,8.5-8.3,12.1-13.1c0.3-0.5,0.9-0.7,1.4-0.4c0.5,0.3,0.8,0.5,0.8,0.8c0,0.3-0.1,0.6-0.3,0.9
		c-2.5,4-5.3,7.7-8.6,11c-6.8,7.3-12.5,11.9-17.1,13.6c-2.1,0.9-4.4,1.3-6.7,1.4c-3.9,0.3-7.5-2.3-8.5-6.1c-0.2-0.9-0.3-1.8-0.3-2.7
		c0-3.7,1.7-9.4,5.1-16.9c-0.5,1.2-2.6,3.8-6.2,8c-0.9,1.1-1.7,1.1-2.2,0c-0.1-0.3-0.2-0.6-0.2-0.9c0.1-0.5,0.3-1,0.6-1.4
		c5.2-6.5,9.3-12,12.3-16.4c-0.2-0.7-0.1-1.5,0.3-2.1c2.1-6,4-9.1,5.6-9.4L614.6,754.7z M627.3,733.5l-1.3,5.1c0,1-0.7,2.5-2.1,4.7
		c-1.4,2.2-2.5,3.2-3.2,3.2c-4.6,0-6.9-1.1-6.9-3.4c0-0.4,2.3-2.4,6.9-5.9l2.7-2.1c1.7-1.5,2.8-2.2,3.2-2.2c0.3,0,0.6,0.2,0.6,0.5
		C627.3,733.4,627.3,733.5,627.3,733.5"/>
	<path class="st1" d="M656.5,803c-5.5,0-8.2-3.3-8.2-9.8c0-6.6,4.7-14.6,14.1-24.2c0.6-0.6,1.1-1.1,1.6-1.8l1.2-1.6
		c1.5-2,2.2-3.3,2.1-3.8l-0.5-1.4c-0.4-1.3-2.2-2.2-5.3-2.8c-2.5-0.5-5-0.8-7.5-0.9c-9.6,13.5-15.1,21.3-16.6,23.2
		c-1.5,1.9-2.5,2.7-3,2.3c-0.5-0.2-0.8-0.7-0.8-1.2c0.1-0.7,0.5-1.4,1-1.9c5.7-7,10.7-14.5,14.9-22.5c-1.1-0.1-2.1-0.6-2.9-1.4
		c-0.6-0.7-0.7-1.9-0.2-3.5c0.5-1.7,2.2-3.9,4.9-6.6c2-2.2,4.4-4.1,7.1-5.6c2-1,3.3-1.5,3.8-1.8c0.6-0.2,1.2-0.3,1.8-0.3
		c1.3,0,0.8,1.9-1.3,5.7l-6.2,9.9c4.8,0.3,8.9,0.5,12.3,0.5l5.6-0.2c1.4-0.1,2.7,0.2,4,0.7c0.9,0.5,1.1,1.3,0.6,2.5
		c-0.8,2-2.6,4.8-5.6,8.2c-6.1,7.1-11,15.2-14.3,23.9c-0.7,1.7-1.1,3.5-1.2,5.3c0,3.1,1.2,4.6,3.4,4.6c1.5-0.3,3-0.9,4.2-1.8
		c2.1-1.2,5.6-4,10.5-8.4c4.4-3.9,8.4-8.3,11.8-13c0.3-0.5,1-0.7,1.5-0.4c0.6,0.3,0.9,0.5,0.9,0.8c0,0.3-0.1,0.6-0.3,0.9
		c-2.5,4-5.4,7.7-8.6,11c-3.7,4-7.7,7.7-12.1,10.8C665.5,801.4,661.1,802.9,656.5,803"/>
	<path class="st1" d="M817.5,714.6c-0.2,2.9-1.2,5.7-2.9,8.1c-1.2,2.4-3,4.5-5.3,5.9c-2,1.1-3,1-3-0.3c0.5-0.7,1.1-1.3,1.8-1.9
		c3.5-3.3,5.3-6,5.3-8.1c0-4.6-4.5-6.9-13.6-6.9c-11.7,0.5-23.1,3.6-33.4,9.1c-6.8,3.7-10.2,7-10.2,9.7c0,2.2,2.1,4.4,6.2,6.4
		c2.2,1.1,6.7,2.8,13.3,5.3c6.7,2.5,12,4.7,16.1,6.6c4.3,2,8.3,4.7,11.7,7.9c3.7,3.4,5.5,7.2,5.5,11.3s-2.5,8.7-7.4,13.6
		c-7.5,7.1-17.2,13.1-29.1,17.8c-11.9,4.7-22.2,7.1-30.7,7.2c-16.8,0-25.3-4.7-25.3-14.2c0-9.5,5.2-17.5,15.5-24.1
		c7.8-5.6,17.2-8.7,26.9-8.8c2.2,0,3.2,0.4,3,1.2s-1.8,1.2-4.8,1.2c-4,0.3-7.9,1.3-11.5,3c-4.8,2.1-9.3,5-13.1,8.5
		c-5.3,4.8-8,9.6-8,14.4c0,3,1.4,5.7,4.3,8c2.9,2.3,8.4,3.5,16.4,3.5c8.1,0,16.2-1.3,24-3.8c17.1-5.6,27.7-11.8,32-18.5
		c1.7-2.5,2.6-4.5,2.6-6.2c0-4.9-3-8.7-8.9-11.5c-9.5-4.2-19.2-7.9-29.1-11c-4.4-1.4-8.5-3.5-12.2-6.3c-3.4-2.6-5.1-5.7-5-9.4
		c0-3.7,2-7.3,6-10.9c4.2-3.7,9.2-6.6,14.5-8.5c12.2-4.6,22.5-6.9,30.9-6.9C811.6,705.9,817.5,708.8,817.5,714.6"/>
	<path class="st1" d="M841,754.2c8.2-0.8,13.2-1.2,15-1.2s2.6,0.3,2.6,0.8c0,0.6-1.3,1.3-3.8,2c-2.5,0.7-8.6,1.6-18.3,2.6
		c-0.5,1-1.2,2.1-1.9,3.4c-1,1.5-1.9,3-2.6,4.7c-6.1,12.1-9.3,19.9-9.6,23.2c-0.1,1.2-0.2,2.4-0.2,3.7c-0.1,1.3,0.4,2.7,1.3,3.7
		c1.5,1.7,3.6,1.8,6.4,0.3c2.8-1.5,6.6-4.5,11.6-8.9c4.5-3.9,8.5-8.3,12.1-13.1c0.4-0.5,1.1-0.7,1.6-0.3c1.6,0.7-1.2,4.9-8.3,12.6
		c-6.8,7.3-12.5,11.9-17.1,13.6c-2.1,0.9-4.4,1.3-6.7,1.4c-3.9,0.3-7.5-2.3-8.5-6.1c-0.2-0.9-0.3-1.8-0.3-2.7
		c0-3.7,1.7-9.4,5.1-16.9c-0.5,1.2-2.6,3.8-6.2,8c-1,1.1-1.7,1.1-2.2,0c-0.1-0.3-0.2-0.6-0.2-0.9c0.1-0.5,0.3-1,0.6-1.4
		c5.2-6.5,9.3-12,12.3-16.4c0-0.1,1.2-2.3,3.5-6.7c-1.1,0.2-2.2,0.3-3.3,0.3c-0.9,0.1-1.9-0.3-2.5-1c-0.5-0.7-0.6-1.7-0.2-2.5
		c0.7-1.7,3.6-2.7,8.5-2.9c0.1-0.2,0.4-0.4,0.6-0.3l7.9-14.9c0.4-0.9,0.9-1.7,1.4-2.6c0.5-0.9,0.9-1.6,1.2-2.1
		c0.2-0.5,0.6-1,0.9-1.5c0.2-0.4,0.5-0.8,0.8-1.2l0.6-0.6c0.4-0.6,1.7-0.9,3.8-0.9s3.5,0.6,4.2,1.7c0.4,0.7,0.5,1.4,0.5,2.2
		c-0.1,1.2-0.5,2.4-1.2,3.4c-0.6,1-1.4,1.9-2.3,2.6c-0.7,0.5-1.3,1.1-1.7,1.9l-7.7,13.4L841,754.2z"/>
	<path class="st1" d="M918,787.7c-3.4,3.8-7.2,7.3-11.2,10.4c-4,3-8.9,4.7-13.9,4.7c-1.3-0.1-2.6-0.6-3.8-1.4
		c-1.5-0.9-2.6-2.3-3.1-3.9c-0.5-1.6-0.8-3.3-0.8-5c0-5.6,1.1-11.2,3.2-16.4c-1.6,2.2-3.1,4.4-4.4,6.8c-2.7,4.4-5.9,8.5-9.6,12.1
		c-3.8,3.8-7.6,5.7-11.4,5.7c-2.1-0.1-4.3-0.6-6.2-1.4c-4.3-1.9-6.4-5.4-6.4-10.6c0-6.3,2.2-12.7,6.5-19.4s7-10.2,8.2-10.6
		c1.5-0.4,3-0.6,4.5-0.6c1.5,0,3,0.3,4.4,0.9c1.5,0.6,1.3,1.6-0.6,3c-6.9,6.1-12.3,13.8-15.7,22.4c-1,2.6-1.6,5.3-1.8,8.1
		c0,2.2,0.6,3.6,1.7,4.2c1,0.6,2.1,0.9,3.3,1c2.6,0,6-1.8,10.5-5.4c4.4-3.6,10.5-11,18.3-22.3c1.1-1.6,2.9-4.7,5.6-9.4
		c2.7-4.7,4.3-7.4,4.8-8.2c2,0.1,4.1,0.5,6,1.2c2.3,0.8,3.1,1.8,2.3,3.1c-5.1,8.5-8.7,14.8-10.8,18.9c-2.2,4.5-3.6,9.3-4.2,14.2
		c-0.1,1.2-0.2,2.4-0.2,3.7c-0.1,1.3,0.4,2.7,1.3,3.7c1.6,1.7,3.8,1.8,6.6,0.2c4.2-2.6,8.1-5.6,11.6-8.9c4.4-3.9,8.4-8.3,11.8-13
		c0.3-0.5,1-0.7,1.5-0.4c0.6,0.3,0.9,0.5,0.9,0.8c0,0.3-0.1,0.6-0.3,0.9C924.2,780.6,921.3,784.3,918,787.7"/>
	<path class="st1" d="M929.8,769.8c4.6-4.1,9.5-7.7,14.8-10.8c3.8-2.4,7.9-4.3,12.1-5.6c2.9-0.8,5.8-1.1,8.8-1.2c3,0,5.9,1,8.2,2.9
		c14.6-33.9,28.5-50.8,41.8-50.8c4.5,0,7.5,1.3,9.1,3.8c0.7,1,1.1,2.2,1.2,3.4c0,2.7-1.1,6-3.4,10.1c-2.9,4.9-6.5,9.5-10.6,13.5
		c-6.5,6.4-13.4,12.5-20.6,18.1c-9,7.2-13.9,11.2-14.9,12.1c-3.2,7.4-5.9,15-8,22.9c-1.9,7.4-2.9,12.8-2.9,16.4
		c-0.1,3,0.5,6,1.9,8.6c0.5,1.3,1.6,2.2,2.9,2.5c1.1,0.3,2.3,0.1,3.3-0.5c0.7-0.5,1.4-1,2.1-1.5c0.5-0.5,1.1-0.9,1.8-1.2
		c0.7-0.4,1.2-0.5,1.5-0.2c0.4,0.2,0.3,0.8-0.2,1.8c-0.7,0.9-1.5,1.9-2.3,2.7c-1.8,1.2-3.9,1.8-6,1.8c-1.5,0-3,0-4.5-0.2
		c-5.1-0.8-7.7-4.5-7.7-11.2c-0.1-6,0.8-12,2.6-17.7c2.3-7.5,4.5-13.6,6.4-18.5c-17.1,19.8-29.1,29.7-36.3,29.7
		c-1.9-0.1-3.8-0.6-5.5-1.5c-2-1-3.7-2.5-5-4.3c-1.3-1.7-2.1-3.8-2.1-6c0-2.1,0.5-4.2,1.4-6.1C922,777.9,925.5,773.4,929.8,769.8
		 M972.4,757.8c-2.1-0.8-4.4-1.1-6.7-1c-3.2,0-7.3,1.3-12.4,3.9c-5.2,2.7-10,6-14.3,9.8c-3.8,3.5-7.1,7.5-9.8,11.9
		c-2.8,4.4-4.2,7.7-4.2,9.7c0,3.9,1.1,5.9,3.4,5.9s5.6-1.8,10.2-5.4c11.2-9.1,21.8-18.9,31.7-29.4L972.4,757.8z M1019.2,717.5
		c1.2-2,1.9-4.2,2.1-6.5c0-1.8-0.8-2.6-2.3-2.6c-1.6,0-3.6,1-6.1,2.9c-11.7,9-22.3,23.9-31.8,44.9c7.8-5.2,15.1-11.2,21.7-17.9
		C1010.3,730.8,1015.8,723.9,1019.2,717.5"/>
	<path class="st1" d="M1051.8,781.4c1.9-3.9,2.9-6.9,2.9-9.1c0.1-1.7-0.2-3.4-0.7-5c-0.5-1.1-0.3-2.3,0.6-3.1c0.9-0.9,2.2-1.2,3.4-1
		c2.1,0.5,3.2,2.9,3.2,7.2c0,4.3-2.5,9.9-7.5,16.8c0.1,2.9,1.6,4.3,4.5,4.3c2.9,0,7.2-3.1,13.1-9.3c2.8-3.2,4.5-5.3,5.2-6.2
		c0.7-1,1.3-1.3,1.8-1c0.5,0.3,0.8,0.5,0.8,0.7c0,1.1-1.9,3.8-5.8,8.3c-6.1,7.5-11.4,11.2-16.1,11.2c-2.8,0.2-5.4-1.4-6.6-4
		c-2.1,2.2-4.2,4.3-6.2,6.2c-3.8,3.4-8.8,5.3-13.9,5.3c-2.6,0.1-5.1-0.6-7.2-2.1c-3.7-2.2-5.5-6.2-5.5-12c0-6.3,2.1-12.6,6.4-19.2
		c2.4-3.8,5.3-7.1,8.6-10.1c5.2-4.6,10.2-6.9,14.9-6.9c1.1,0,2.3,0.2,3.4,0.5c3.2,1.1,4.8,3.1,4.8,6.1c0,2.5-0.6,3.7-1.9,3.7
		c-0.5-0.2-0.8-1-0.8-2.3c0-1.9-1.1-2.9-3.2-2.9c-3.7,0-8.5,3.4-14.4,10.2c-5.9,6.8-9.4,13.7-10.6,20.6c-0.2,1.3-0.3,2.6-0.3,3.9
		c0.1,1.7,0.6,3.4,1.4,5c1,1.9,2.7,2.8,5.4,2.8c2.6,0,5.5-1.2,8.5-3.5c3.2-2.5,6-5.5,8.3-8.9l-0.5-1c-0.5-1.4-0.2-3,0.6-4.2
		C1049.2,781.4,1050.6,781,1051.8,781.4"/>
	<path class="st1" d="M1076.4,800.6c-1.4,1.6-1.7,2.8-0.9,3.8c0.6,0.9,1.6,1.4,2.7,1.4c1.1,0,2.1-0.2,3.1-0.5
		c5-1.6,9.6-4.5,13.3-8.2c4.3-4.1,6.5-8.3,6.5-12.5c0-2.3-2.6-4.9-7.8-7.7c-2.5-1.3-3.8-2-4.2-2.2c-2.9-1.9-4.7-3.8-5.4-5.8
		c-1.5,2.6-3.9,6.2-7.2,11c-0.8,0.9-1.5,1-2.1,0.6c-0.6-0.5-0.7-1.2-0.2-2c4.4-6,7.2-11,8.6-15c0.8-5.9,5-11.1,12.8-15.8
		c7.7-4.7,14.8-7,21.2-7c4.1,0,6.9,0.7,8.6,2.2c1.6,1.4,2.5,2.9,2.5,4.2c-0.1,1.7-0.5,3.3-1.2,4.8c-1.1,2.1-2.8,3.9-4.9,5.1
		c-0.4,0.4-1,0.3-1.4-0.1c-0.1-0.1-0.1-0.2-0.2-0.3c-0.2-0.6,0.2-1.5,1.4-2.6c1.2-1.3,1.9-2.8,2.2-4.5c0.3-1.9-0.5-3.1-2.6-3.5h-0.9
		c-4.2,0-9.4,1.6-15.6,4.7c-5.8,2.7-10.8,6.8-14.6,12c-1.3,1.5-2,3.5-2.1,5.5c0,1.9,1.3,3.5,3.8,5c1.1,0.6,2.9,1.7,5.4,3
		s4.4,2.3,5.4,3c1.4,0.9,2.7,1.9,3.8,3c1.2,1,2,2.3,2.3,3.8c0.5,3.2-1,6.7-4.5,10.6c-5,5.5-12.5,9.4-22.4,11.7
		c-2.2,0.5-4.5,0.8-6.8,0.8c-1.9,0.2-3.8-0.8-4.7-2.6c-0.4-0.6-0.5-1.3-0.5-2c0-0.9,0.8-2.3,2.6-4.4c2.2-2,4.8-3.6,7.7-4.7
		c0.3-0.1,0.6,0,0.8,0.2c0.2,0.2,0.3,0.5,0.2,0.8c-0.1,0.3-0.7,0.7-1.7,1.2c-1.3,0.7-2.5,1.8-3.3,3"/>
	<path class="st1" d="M997.9,754.7c2.7,0,4.3,0.9,4.8,2.6c0.2,0.9,0.1,1.9-0.4,2.8c-0.5,0.9-0.8,1.6-1,2.2c-0.2,0.5-0.4,1-0.5,1.3
		c-0.5,1.1-1.1,2.1-1.6,3c-6.1,12.1-9.3,19.9-9.6,23.2c-0.1,1.2-0.2,2.4-0.2,3.7c-0.1,1.3,0.4,2.7,1.3,3.7c1.5,1.7,3.6,1.8,6.4,0.3
		c2.8-1.5,6.6-4.5,11.6-8.9c4.5-3.9,8.5-8.3,12.1-13.1c0.3-0.5,0.9-0.7,1.4-0.4c0.5,0.3,0.8,0.5,0.8,0.8c0,0.3-0.1,0.6-0.3,0.9
		c-2.5,4-5.4,7.7-8.6,11c-6.8,7.3-12.5,11.9-17.1,13.6c-2.1,0.9-4.4,1.3-6.7,1.4c-3.9,0.3-7.5-2.3-8.5-6.1c-0.2-0.9-0.3-1.8-0.3-2.7
		c0-3.7,1.7-9.4,5.1-16.9c-0.5,1.2-2.6,3.8-6.2,8c-1,1.1-1.7,1.1-2.2,0c-0.1-0.3-0.2-0.6-0.2-0.9c0.1-0.5,0.3-1,0.6-1.4
		c5.2-6.5,9.3-12,12.3-16.4c-0.2-0.7-0.1-1.5,0.3-2.1c2.1-6,4-9.1,5.6-9.4L997.9,754.7z M1013.2,740.2l-0.8,3.4
		c-0.2,1.1-0.7,2.1-1.4,3c-0.9,1.4-1.6,2.1-2.1,2.1c-3,0-4.5-0.7-4.5-2.2c0-0.3,1.5-1.6,4.5-3.9l1.8-1.4c1.1-1,1.8-1.5,2.1-1.5
		c0.2,0,0.4,0.1,0.4,0.3C1013.2,740.1,1013.2,740.2,1013.2,740.2"/>
</g>
</svg>
