<svg xmlns="http://www.w3.org/2000/svg" viewBox="0 0 1113.9 758.73"><defs><style>.cls-1{fill:#efb73f;}.cls-2{fill:#fff;}</style></defs><title>NewLogo</title><g id="Layer_2" data-name="Layer 2"><g id="Layer_1-2" data-name="Layer 1"><g id="Layer_2-2" data-name="Layer 2"><g id="Layer_1-2-2" data-name="Layer 1-2"><path class="cls-1" d="M851.1,152.33c-.6-3.3-3.1-5.6-7.6-7s-8.2-1.8-11.1-1.3c-6.6,1.2-12.8,6.5-18.7,16.1s-8.7,17-8.3,22.1a8.07,8.07,0,0,1,1.5,3.7c.3,1.6-.3,5.8-1.9,12.6s-5.6,22.2-12.2,46.5c-11.7.8-27.2.7-46.5-.2-9.5-.6-16.7-.9-21.6-1,3-12.5,6.5-28.6,10.2-48.1s6-30.7,6.6-33.7c-.2-2.2-3.1-2.8-8.8-1.8s-8.5,2.6-8.4,4.9a74.13,74.13,0,0,1-14.5,29c-7,8.7-14.3,14.2-22,16.3q-3.15,1-2.7,3.3c.3,1.4,1.4,1.9,3.2,1.4,13.8-3.9,24.7-11,32.8-21.3-2.7,20.7-5.2,37.3-7.5,49.7a162.77,162.77,0,0,0-17.1.5l-16.9,1.3a78.67,78.67,0,0,0-21.3,6.6c-5.2,2.6-9.3,6.9-12.5,13s-3.7,14.7-1.8,25.8a22.34,22.34,0,0,0,4.8,9.6,3.59,3.59,0,0,0,4.5,1c1.6-.8,1.8-2,.3-3.6a11.15,11.15,0,0,1-2.6-5.2,15.21,15.21,0,0,1,.3-6c2.7-15.9,15.5-25.8,38.6-29.9,2.2-.4,4.6-.7,7.1-1l14.6-1.6q-14,69.9-37.9,98.9h0c-3,3.2-6.2,6.5-9.6,9.7h0c-5.1,4.9-10.5,9.7-16.4,14.6l-1,.7h0l-1.3,1c-10.1,7.4-18.2,11.1-24.5,11.1-9.3,0-14-8.4-14-25.2,0-21.7,6.9-49.7,20.6-83.8q16.65-41.85,20-55.1c2.2-8.8,3.3-15.7,3.3-20.6a21.8,21.8,0,0,0-4.7-13.6c-3.1-4.1-7.6-6.2-13.6-6.2q-15.15,0-30.3,15.9-46.2,50.1-90.8,125c-8.3,13.7-13.5,22.2-15.7,25.6s-3.8,5.9-4.9,7.6-1.8,2.5-2.1,2.3.6-3.9,2.9-11.4c14-42.4,20.9-75,20.9-97.8,0-15.3-3.4-28.6-10.1-40q-11.7-20.25-42.3-20.2h-5.4c-7.6.4-17.8,4.4-30.4,12q-17.25,10.5-40.8,30c2.8-6.2,5.4-12.5,7.9-18.8a442.28,442.28,0,0,0,24-83.7c1.8-10.1,3.4-20.2,6.8-30.5,1.8-5.4,1.9-10-4.5-11.8l-3.1.2c-5.4,3.9-6.3,8.6-5.5,13.3a75.14,75.14,0,0,1,.1,21.7,331.46,331.46,0,0,1-7,39.6c-.3,1.1-.5,2.2-.8,3.3a378.93,378.93,0,0,1-18.6,54.7c-4.6,10.8-9.7,21.3-15.2,31.6a8.34,8.34,0,0,1-.8,1.2c.1-2.4.9-4.7.8-7-.1-6.7,2.7-12.3,8.1-17.1a17.29,17.29,0,0,0,5.9-16.7c-.1-.4,0-.8-.1-1.2-.8-4.3.8-8,3.4-11.6,4.1-5.7,8.7-11.6,6.9-18.7-1.5-5.8,0-10.8,4.3-15.9l.9-1.1c7.8-8-.2-51.1-1.6-54.3-.5-2.9-2.7-4.9-6.6-5.6-3.2-.6-4.7,0-6.1,2.3-1.9,3.3-.8,6.1,1.2,9,2.3,3,10,21.1,11.3,27.2,1.8,7.6.7,15.1-6.4,21.4l-1.5,1.5a12.15,12.15,0,0,0-2.9,11.8c.4,1.6.3,3.2.7,4.8,1.2,4.5-.1,8.7-3.8,12.2a64,64,0,0,0-4.2,4.9c-3,3.2-4.4,6.7-3.7,10.8.4,2.6.1,5.2.5,7.8.6,4.1-1.2,7.5-4.7,10.3-.9.8-1.9,1.5-2.8,2.2-2.9,2.3-4.9,4.8-5.3,8.1a84.73,84.73,0,0,1-1.9,11.4,17.87,17.87,0,0,1-3.6,7.3l-1.2,1.2c-.7.8-1.5,1.6-2.2,2.4-15.1,14-33.4,32.6-54.7,55.7q-33.6,36.3-49.5,61.1c-6.2,9.8-9.3,18.8-9.3,26.8,0,13.4,6.6,20.2,19.8,20.2q31,0,66-65.6,12.45-23.25,28.3-57.8c7.8-17.6,12.8-29.7,15.1-36.5Q437.35,203,463.7,203q28.35,0,28.3,65.6,0,18.6-4.5,47.7A258.1,258.1,0,0,1,473,371a9.35,9.35,0,0,0-.4,3.3c0,1.7,1.2,4.4,3.5,8.1s4.5,5.6,6.6,5.6,4.1-2.2,6.2-6.6q15.15-31.5,52.6-86.5t67.3-80.7c5.4-4.7,9.4-7,12-7A9.82,9.82,0,0,1,627,209c1.5,1.2,2.3,3.2,2.3,6.2a30.18,30.18,0,0,1-2.3,10.7c-1.6,4.1-5.7,14.6-12.4,31.4-2.1,4.7-4.7,11.3-7.8,20s-5.6,16.2-7.6,22.7-4.5,15.7-7.6,27.5a148.63,148.63,0,0,0-4.6,36.9q0,36.45,25.6,36.9a48,48,0,0,0,15.1-2.7c9.6-3,39.5-19.9,56.2-47.5l9.2-15.2q15.9-30.3,28.6-82.3l69.3-2.9c-3.9,14-5.7,27-5.5,39a71.31,71.31,0,0,0,.7,10.3,55,55,0,0,0,1.7,7c.7,2.5,11.8.9,10.3-8-2-11.5,1.5-59.1,21.3-105.9,4.6-11,8.5-20.6,13.3-28.1s9.6-11.7,14.1-12.5a5.37,5.37,0,0,1,2.1.5c1.8.2,2.2,0,2.1-.7M344.4,294.13c-.4.6-.7,1.2-1.1,1.7-4.7,11.4-10.9,24.7-18.7,40-1.7,3.3-3.4,6.8-5.3,10.2q-34.95,67.2-59,67.1c-4.9,0-7.4-3.3-7.4-9.9s4.5-16,13.6-28.1c3.8-5.1,9.1-11.7,15.8-19.6q8.25-9.75,19.5-22.5c2-2.3,4.1-4.6,6.1-6.9l.1-.1c14.2-15.8,27.2-29.3,39.2-40.6-.2.5,4.3-6.9,5.3-11.8.5-2.4,2.4-4.5,4.2-6.4,2.2-2.5,5-4.7,7.7-7.3-6.2,12.1-13.1,23.2-20,34.2"/><path class="cls-1" d="M948.5,219.83c0,4.6-1.9,9.8-5.6,15.8-3.1,5.6-6.6,9.4-10.4,11.5s-5.7,1.9-5.7-.6c0-.2,1.1-1.5,3.4-3.7,6.8-6.4,10.2-11.7,10.2-15.8,0-8.9-8.8-13.3-26.3-13.3q-11.1,0-29.4,4.2a136.27,136.27,0,0,0-35.3,13.5q-19.8,10.8-19.8,18.9c0,4.3,4,8.5,12.1,12.4,4.3,2.1,13,5.5,25.9,10.4s23.3,9.1,31.3,12.7a85,85,0,0,1,22.6,15.3c7.1,6.6,10.7,13.9,10.7,22s-4.8,16.8-14.2,26.3c-14.5,13.8-33.3,25.4-56.4,34.5s-43,13.8-59.5,13.8q-49.05,0-49-27.6t30-46.8c16.5-11.3,33.9-17,52-17,4.3,0,6.3.7,5.9,2.2s-3.5,2.2-9.3,2.3-13.2,2.1-22.3,5.9a88.37,88.37,0,0,0-25.3,16.5c-10.3,9.3-15.5,18.6-15.5,27.9,0,5.8,2.8,11,8.4,15.5s16.2,6.8,31.9,6.8a149.78,149.78,0,0,0,46.5-7.4c33.1-10.9,53.7-22.9,62-35.9,3.3-4.7,5-8.8,5-12.1,0-9.5-5.8-16.9-17.4-22.3q-20.25-9.3-56.5-21.4a78.44,78.44,0,0,1-23.7-12.2c-6.5-5.1-9.8-11.2-9.8-18.3s3.9-14.1,11.6-21.1a89.14,89.14,0,0,1,28-16.6q35.4-13.35,59.8-13.3c22.7,0,34.1,5.6,34.1,17"/><path class="cls-1" d="M733.4,378.23c-36.2,112.7-142.1,194.5-266.6,194.5-154.4,0-280-125.6-280-280s125.6-280,280-280c103,0,193.1,55.9,241.8,138.9a25.94,25.94,0,0,1,10.7-8.4,296.9,296.9,0,0,0-45-57.9c-115-114.2-300.6-113.7-414.9,1.1-113.8,114.4-113.9,299.2-.1,413.7,114.8,114.5,300.7,114.3,415.2-.4a292.61,292.61,0,0,0,66.7-103.3,41.73,41.73,0,0,1-7.8-18.2"/></g></g><g id="Text"><path class="cls-2" d="M35.3,722.53c-9.6,18-18.6,27-27.2,27-5.4,0-8.1-2.7-8.1-8.3,0-3.3,1.3-7,3.8-11Q10.4,720,24.2,705c9.2-10,17-17.9,23.5-23.7l6.1-20.6c-5.3,5-12.3,7.9-20.8,8.8-1.1.1-1.6-.2-1.7-1s.4-1.2,1.4-1.4l.6-.2q6.9-.6,14.1-7.2a45.18,45.18,0,0,0,11-15c.4-1.4,2.3-2,5.6-2s4.9.7,4.8,2L57.8,672c14.5-12.3,24.9-18.5,31.2-18.9h2.2c8.4,0,14.2,2.8,17.4,8.3a32.59,32.59,0,0,1,4.2,16.4c0,9.4-2.9,22.8-8.6,40.3-1,3.1-1.4,4.7-1.2,4.7s.4-.3.9-1,1.1-1.7,2-3.1,3.1-4.9,6.5-10.6c12.3-20.6,24.7-37.7,37.4-51.5,4.2-4.4,8.3-6.5,12.5-6.6a6.52,6.52,0,0,1,5.6,2.7,9.45,9.45,0,0,1,1.9,5.6,40.64,40.64,0,0,1-1.3,8.5c-.9,3.6-3.7,11.2-8.2,22.7-5.6,14.1-8.5,25.6-8.5,34.5,0,6.9,1.9,10.4,5.8,10.4,2.8,0,6.4-1.8,11-5.3a100,100,0,0,0,16.9-17.5c.5-.7,1-.9,1.5-.5a1.62,1.62,0,0,1,.7,1,.91.91,0,0,1-.3.7,75.09,75.09,0,0,1-9.6,11.5c-7.1,7.6-12.9,12.1-17.3,13.4a22,22,0,0,1-6.2,1.2c-7-.1-10.6-5.2-10.6-15.2a59.74,59.74,0,0,1,1.9-15.2c1.3-4.9,2.3-8.7,3.1-11.4s1.8-5.8,3.1-9.4,2.3-6.3,3.2-8.2q4.2-10.35,5.1-12.9a13.41,13.41,0,0,0,1-4.4,2.91,2.91,0,0,0-1-2.6,4,4,0,0,0-2.6-.7c-1.1,0-2.7.9-4.9,2.9-8.2,7-17.5,18.1-27.7,33.2s-17.5,27-21.7,35.6c-.9,1.8-1.7,2.7-2.6,2.7s-1.8-.8-2.7-2.3a7.92,7.92,0,0,1-1.4-3.4,2.74,2.74,0,0,1,.2-1.3,109.92,109.92,0,0,0,6-22.5,128.56,128.56,0,0,0,1.8-19.5q0-27-11.7-27-10.8,0-39.5,26.2c-1,2.8-3,7.8-6.2,15-4.5,9.7-8.4,17.7-11.8,24M8.6,744c6.6,0,14.7-9.2,24.3-27.7a224.6,224.6,0,0,0,11.5-24.9c-5.7,5.3-11.9,11.9-18.7,19.6s-11.7,13.5-14.5,17.3c-3.7,5-5.6,8.9-5.6,11.6s1,4.1,3,4.1"/><path class="cls-2" d="M190.8,737.23a13.29,13.29,0,0,1-5.5-1.5,13.84,13.84,0,0,1-5-4.3,9.94,9.94,0,0,1-2.1-6,14.34,14.34,0,0,1,1.4-6.1,40.64,40.64,0,0,1,10.3-13,91.91,91.91,0,0,1,14.8-10.8c5.1-3,9.2-4.9,12.1-5.6a42.4,42.4,0,0,1,8.7-1.2,12.07,12.07,0,0,1,7.3,2.2c2,1.4,3,3,3,4.6,0,.5-.1.9-.2.9s-.4.1-.8-.2c-1.3-2-3.9-3-7.9-3s-8.5,1.3-13.6,3.9a71,71,0,0,0-14.3,9.8,58.6,58.6,0,0,0-9.8,11.9c-2.8,4.4-4.2,7.6-4.2,9.7,0,3.9,1.1,5.9,3.4,5.9s5.6-1.8,10.2-5.4a187.71,187.71,0,0,0,15.5-14.1c9.8-10.6,15.1-15.8,15.8-15.8a13.05,13.05,0,0,1,4.7,1.2c1.8.7,2.3,1.7,1.8,2.7-5.5,7.7-8.7,15.4-9.6,23.2-.1,1.2-.2,2.4-.2,3.7a5.11,5.11,0,0,0,1.3,3.7q2.4,2.55,6.6.3c2.8-1.5,6.6-4.5,11.6-8.9A86.22,86.22,0,0,0,258,712a1,1,0,0,1,1.4-.4c.5.3.8.5.8.7,0,1.6-2.5,5.1-7.6,10.5a93.06,93.06,0,0,1-11.6,11c-5,3.7-9.6,5.6-13.9,5.6-4,0-6.8-2-8.2-6.1a21,21,0,0,1-.5-4.3,43.75,43.75,0,0,1,3-15.2,59.66,59.66,0,0,0-5.9,6.4,96.42,96.42,0,0,1-12.2,11.7c-4.5,3.3-8.7,5.2-12.5,5.3"/><path class="cls-2" d="M296,700.23l.8-3.2c0-2.1-.8-3.2-2.4-3.2-4.4,0-10.3,3.4-17.9,10.2s-12.4,13.7-14.4,20.6a16.22,16.22,0,0,0-.8,4.9,6.53,6.53,0,0,0,1,3.6,6.75,6.75,0,0,0,5.9,2.9,31.33,31.33,0,0,0,8.6-1.2,48.74,48.74,0,0,0,17-8.2,91.7,91.7,0,0,0,14.3-14.9,1.28,1.28,0,0,1,1.5-.5q.9.3.9.9a4.8,4.8,0,0,1-.5,1.7,85.89,85.89,0,0,1-16.1,16.9,43.79,43.79,0,0,1-19.4,8.4,38.08,38.08,0,0,1-5.9.5c-5.2,0-9.2-1.3-11.9-3.8a11.57,11.57,0,0,1-4.1-8.5,27,27,0,0,1,2.2-10.1q4.05-9,17.1-18.6c8.8-6.4,15.7-9.6,20.8-9.6a15.68,15.68,0,0,1,3.7.5q4.5,1.65,4.5,5.1a10.54,10.54,0,0,1-1.8,5.4c-1.2,2-2.1,2.7-2.6,2.2a2,2,0,0,1-.5-2"/><path class="cls-2" d="M343.2,688.93c5.8,0,8.6,2.8,8.6,8.3a10.21,10.21,0,0,1-2.3,7c-2.7,3.9-7,7.4-12.9,10.3s-11,4.6-15.2,4.9c-1.5.1-2.3-.3-2.3-1.3a.67.67,0,0,1,.3-.8h.1c.3-.1.6-.1.9-.2,2.5-.2,5.6-1.4,9.4-3.5,7.1-3.8,12.3-7.8,15.7-11.8a9.38,9.38,0,0,0,2.1-5.5,2.23,2.23,0,0,0-2-2.6h-.5a13.67,13.67,0,0,0-5.6,1.8c-5,2.3-10.3,6.4-15.8,12.2s-9.2,11.5-10.9,17a16.87,16.87,0,0,0-.8,5,6.84,6.84,0,0,0,2.1,4.7c1.4,1.5,3.5,2.2,6.4,2.2a27.73,27.73,0,0,0,11-2.6c12-4.9,21.3-12.3,27.8-22.2.6-.9,1.2-1,1.8-.5a.94.94,0,0,1,.6.8,2.08,2.08,0,0,1-.5,1.2,55,55,0,0,1-12.1,14.2c-9.5,8.1-18.7,12.2-27.7,12.1-7.7,0-13-2.3-16.1-6.9a12.59,12.59,0,0,1-1.8-6.6,24.17,24.17,0,0,1,2.1-9.1c2.7-6.1,8.4-12.3,17.1-18.7,8.5-6.2,15.4-9.4,20.5-9.4"/><path class="cls-2" d="M480.1,700.43l-39.6-5.3c-16.2,36.7-31.9,57.5-47.2,62.2a20.69,20.69,0,0,1-7.4,1.4c-8,0-12.9-3.4-14.7-10.1a5.85,5.85,0,0,1-.2-1.3,11,11,0,0,1,.2-1.8c.2-.7.5-.9,1-.7s1.1,1.2,1.6,3a8.3,8.3,0,0,0,6.1,5.9,31.53,31.53,0,0,0,6.1.6,18.16,18.16,0,0,0,4.6-.6c15.5-4.9,30.1-24.7,43.6-59.5l-8.5-.5c-1.5-.1-2.9-.2-4.2-.2-13.5,0-21.8,4.4-24.9,13.1a8.08,8.08,0,0,0-.8,3.4,6.2,6.2,0,0,0,.9,3.2c.6,1.1.5,1.7-.6,2a2.23,2.23,0,0,1-2.5-1,12.34,12.34,0,0,1-1.8-5.9c0-6.5,1.2-11.3,3.6-14.5a16.78,16.78,0,0,1,8.4-6.2,50.45,50.45,0,0,1,12.8-1.6l9.7,1c3.3.3,6.5.8,9.8,1.4,2.6-6.8,5.6-16,9.3-27.5a35.72,35.72,0,0,1-20.8,8.8c-1.1.1-1.6-.3-1.7-1.2s.6-1.4,1.8-1.6c4.6-.4,9.3-2.8,14.1-7a42,42,0,0,0,11.1-15c.2-1.3,2-1.9,5.3-1.9s4.9.6,4.8,1.9c-.6,1.6-3,7.8-7.1,18.5s-7.6,19.5-10.6,26.3c2.8.5,6.8,1.4,12.1,2.7a235.57,235.57,0,0,0,26.4,4.8c6.2-13.1,10-21.5,11.6-25.2s2.3-6,2.3-7a4.19,4.19,0,0,0-.5-2.2c.3-3,2.6-6.9,7-11.7s8.4-7.3,12.2-7.3a14.83,14.83,0,0,1,6.2,1.8c2.4,1.2,3.6,2.8,3.6,4.7,0,.4-.3.5-.8.2a3.7,3.7,0,0,0-1.1-.5q-4,0-9.3,5.7a82.5,82.5,0,0,0-10.4,14.6c-5.2,9.3-9.9,18.4-13.9,27.5,9.2,0,15.3-1.9,18.4-5.8.5-1,1.1-1.1,1.6-.4s.4,1.7-.6,3-2.9,2.6-6,3.9-8,1.9-14.7,1.9c-5,11.8-7.5,21.1-7.5,27.8q0,7.8,4.5,7.8c3,0,7.6-2.3,13.6-7a92,92,0,0,0,17-17.7,1.09,1.09,0,0,1,1.4-.2.93.93,0,0,1,.6,1.2c0,.1-.1.1-.1.2a25,25,0,0,1-2.5,4.1,90.5,90.5,0,0,1-16.4,16.9,24.92,24.92,0,0,1-15.7,5.6,8.19,8.19,0,0,1-6.6-2.6,9.84,9.84,0,0,1-2.6-4.8,29.54,29.54,0,0,1-.2-4.2,59,59,0,0,1,.6-5.9,131.17,131.17,0,0,1,7.6-21.2"/><path class="cls-2" d="M520.2,737.23a13.29,13.29,0,0,1-5.5-1.5,13.84,13.84,0,0,1-5-4.3,9.94,9.94,0,0,1-2.1-6,14.34,14.34,0,0,1,1.4-6.1,40.64,40.64,0,0,1,10.3-13,91.91,91.91,0,0,1,14.8-10.8c5.1-3,9.2-4.9,12.1-5.6a42.4,42.4,0,0,1,8.7-1.2,12.07,12.07,0,0,1,7.3,2.2c2,1.4,3,3,3,4.6,0,.5,0,.9-.2.9s-.4.1-.8-.2c-1.3-2-3.9-3-7.9-3s-8.5,1.3-13.6,3.9a71,71,0,0,0-14.3,9.8,58.6,58.6,0,0,0-9.8,11.9c-2.8,4.4-4.2,7.6-4.2,9.7,0,3.9,1.2,5.9,3.4,5.9s5.7-1.8,10.2-5.4a187.71,187.71,0,0,0,15.5-14.1c9.8-10.6,15.1-15.8,15.8-15.8a13.05,13.05,0,0,1,4.7,1.2c1.8.7,2.3,1.7,1.7,2.7-5.4,7.7-8.6,15.4-9.6,23.2-.1,1.2-.2,2.4-.2,3.7a5.11,5.11,0,0,0,1.3,3.7q2.4,2.55,6.6.3c2.8-1.5,6.6-4.5,11.6-8.9a82.36,82.36,0,0,0,11.9-13.1,1,1,0,0,1,1.4-.4c.5.3.8.5.8.7,0,1.6-2.5,5.1-7.6,10.5a93.06,93.06,0,0,1-11.6,11c-5,3.7-9.7,5.6-13.9,5.6s-6.8-2-8.1-6.1a21,21,0,0,1-.5-4.3,43.75,43.75,0,0,1,3-15.2,59.66,59.66,0,0,0-5.9,6.4,96.42,96.42,0,0,1-12.2,11.7c-4.6,3.7-8.8,5.6-12.5,5.6"/><path class="cls-2" d="M600.6,691.13c2.7,0,4.3.9,4.8,2.6a4,4,0,0,1-.4,2.8,12.9,12.9,0,0,0-1,2.2c-.2.5-.4,1-.5,1.3-.5,1.1-1.1,2.1-1.6,3-6.1,12.1-9.3,19.9-9.6,23.2-.1,1.2-.2,2.4-.2,3.7a5.11,5.11,0,0,0,1.3,3.7c1.5,1.7,3.6,1.8,6.4.3s6.6-4.5,11.6-8.9a83.59,83.59,0,0,0,12.1-13.1,1,1,0,0,1,1.4-.4c.5.3.8.5.8.8a1.61,1.61,0,0,1-.3.9,61.43,61.43,0,0,1-8.6,11c-6.8,7.3-12.5,11.9-17.1,13.6a19.11,19.11,0,0,1-6.7,1.4,8.21,8.21,0,0,1-8.5-6.1,12.41,12.41,0,0,1-.3-2.7c0-3.7,1.7-9.4,5.1-16.9-.5,1.2-2.6,3.8-6.2,8-.9,1.1-1.7,1.1-2.2,0a2.92,2.92,0,0,1-.2-.9,3.51,3.51,0,0,1,.6-1.4c5.2-6.5,9.3-12,12.3-16.4a2.58,2.58,0,0,1,.3-2.1c2.1-6,4-9.1,5.6-9.4Zm12.7-21.2L612,675c0,1-.7,2.5-2.1,4.7s-2.5,3.2-3.2,3.2c-4.6,0-6.9-1.1-6.9-3.4,0-.4,2.3-2.4,6.9-5.9l2.7-2.1c1.7-1.5,2.8-2.2,3.2-2.2a.56.56,0,0,1,.6.5.1.1,0,0,1,.1.1"/><path class="cls-2" d="M642.5,739.43c-5.5,0-8.2-3.3-8.2-9.8s4.7-14.6,14.1-24.2a13.72,13.72,0,0,0,1.6-1.8l1.2-1.6c1.5-2,2.2-3.3,2.1-3.8l-.5-1.4c-.4-1.3-2.2-2.2-5.3-2.8a48,48,0,0,0-7.5-.9c-9.6,13.5-15.1,21.3-16.6,23.2s-2.5,2.7-3,2.3a1.3,1.3,0,0,1-.8-1.2,3.52,3.52,0,0,1,1-1.9A135,135,0,0,0,635.5,693a4.69,4.69,0,0,1-2.9-1.4c-.6-.7-.7-1.9-.2-3.5s2.2-3.9,4.9-6.6a27.91,27.91,0,0,1,7.1-5.6c2-1,3.3-1.5,3.8-1.8a5.66,5.66,0,0,1,1.8-.3c1.3,0,.8,1.9-1.3,5.7l-6.2,9.9c4.8.3,8.9.5,12.3.5l5.6-.2a9.15,9.15,0,0,1,4,.7c.9.5,1.1,1.3.6,2.5a31.15,31.15,0,0,1-5.6,8.2A80.8,80.8,0,0,0,645.1,725a16.32,16.32,0,0,0-1.2,5.3c0,3.1,1.2,4.6,3.4,4.6a10.52,10.52,0,0,0,4.2-1.8q3.15-1.8,10.5-8.4a80.63,80.63,0,0,0,11.8-13,1.13,1.13,0,0,1,1.5-.4c.6.3.9.5.9.8a1.61,1.61,0,0,1-.3.9,66.32,66.32,0,0,1-8.6,11,77.29,77.29,0,0,1-12.1,10.8,20.62,20.62,0,0,1-12.7,4.6"/><path class="cls-2" d="M803.5,651a15.9,15.9,0,0,1-2.9,8.1,14.38,14.38,0,0,1-5.3,5.9q-3,1.65-3-.3a10.71,10.71,0,0,1,1.8-1.9c3.5-3.3,5.3-6,5.3-8.1,0-4.6-4.5-6.9-13.6-6.9a77.91,77.91,0,0,0-33.4,9.1c-6.8,3.7-10.2,7-10.2,9.7,0,2.2,2.1,4.4,6.2,6.4,2.2,1.1,6.7,2.8,13.3,5.3s12,4.7,16.1,6.6a44.62,44.62,0,0,1,11.7,7.9c3.7,3.4,5.5,7.2,5.5,11.3s-2.5,8.7-7.4,13.6c-7.5,7.1-17.2,13.1-29.1,17.8s-22.2,7.1-30.7,7.2c-16.8,0-25.3-4.7-25.3-14.2s5.2-17.5,15.5-24.1a47,47,0,0,1,26.9-8.8q3.3,0,3,1.2t-4.8,1.2a32.62,32.62,0,0,0-11.5,3,47.62,47.62,0,0,0-13.1,8.5c-5.3,4.8-8,9.6-8,14.4,0,3,1.4,5.7,4.3,8s8.4,3.5,16.4,3.5a78.69,78.69,0,0,0,24-3.8c17.1-5.6,27.7-11.8,32-18.5,1.7-2.5,2.6-4.5,2.6-6.2,0-4.9-3-8.7-8.9-11.5a275.86,275.86,0,0,0-29.1-11,40.45,40.45,0,0,1-12.2-6.3c-3.4-2.6-5.1-5.7-5-9.4s2-7.3,6-10.9a45,45,0,0,1,14.5-8.5q18.3-6.9,30.9-6.9c11.6-.1,17.5,2.8,17.5,8.6"/><path class="cls-2" d="M827,690.63q12.3-1.2,15-1.2c1.8,0,2.6.3,2.6.8s-1.3,1.3-3.8,2-8.6,1.6-18.3,2.6c-.5,1-1.2,2.1-1.9,3.4a26.83,26.83,0,0,0-2.6,4.7c-6.1,12.1-9.3,19.9-9.6,23.2-.1,1.2-.2,2.4-.2,3.7a5.11,5.11,0,0,0,1.3,3.7c1.5,1.7,3.6,1.8,6.4.3s6.6-4.5,11.6-8.9a83.59,83.59,0,0,0,12.1-13.1,1.15,1.15,0,0,1,1.6-.3c1.6.7-1.2,4.9-8.3,12.6-6.8,7.3-12.5,11.9-17.1,13.6a19.11,19.11,0,0,1-6.7,1.4,8.21,8.21,0,0,1-8.5-6.1,12.41,12.41,0,0,1-.3-2.7c0-3.7,1.7-9.4,5.1-16.9-.5,1.2-2.6,3.8-6.2,8-1,1.1-1.7,1.1-2.2,0a2.92,2.92,0,0,1-.2-.9,3.51,3.51,0,0,1,.6-1.4c5.2-6.5,9.3-12,12.3-16.4,0-.1,1.2-2.3,3.5-6.7a18.41,18.41,0,0,1-3.3.3,3,3,0,0,1-2.5-1,2.49,2.49,0,0,1-.2-2.5c.7-1.7,3.6-2.7,8.5-2.9.1-.2.4-.4.6-.3l7.9-14.9c.4-.9.9-1.7,1.4-2.6s.9-1.6,1.2-2.1a11.91,11.91,0,0,1,.9-1.5,8.34,8.34,0,0,1,.8-1.2l.6-.6c.4-.6,1.7-.9,3.8-.9s3.5.6,4.2,1.7a4.19,4.19,0,0,1,.5,2.2,7,7,0,0,1-1.2,3.4,9.56,9.56,0,0,1-2.3,2.6,5.19,5.19,0,0,0-1.7,1.9L824.7,691Z"/><path class="cls-2" d="M904,724.13a84.7,84.7,0,0,1-11.2,10.4,23.29,23.29,0,0,1-13.9,4.7,8,8,0,0,1-3.8-1.4,7,7,0,0,1-3.1-3.9,16.87,16.87,0,0,1-.8-5,43.94,43.94,0,0,1,3.2-16.4,60.72,60.72,0,0,0-4.4,6.8,62.34,62.34,0,0,1-9.6,12.1q-5.7,5.7-11.4,5.7a18.66,18.66,0,0,1-6.2-1.4c-4.3-1.9-6.4-5.4-6.4-10.6,0-6.3,2.2-12.7,6.5-19.4s7-10.2,8.2-10.6a17.4,17.4,0,0,1,4.5-.6,11.17,11.17,0,0,1,4.4.9q2.25.9-.6,3a58.8,58.8,0,0,0-15.7,22.4,28,28,0,0,0-1.8,8.1c0,2.2.6,3.6,1.7,4.2a7.49,7.49,0,0,0,3.3,1c2.6,0,6-1.8,10.5-5.4s10.5-11,18.3-22.3c1.1-1.6,2.9-4.7,5.6-9.4s4.3-7.4,4.8-8.2a20.64,20.64,0,0,1,6,1.2c2.3.8,3.1,1.8,2.3,3.1q-7.65,12.75-10.8,18.9a44.67,44.67,0,0,0-4.2,14.2c-.1,1.2-.2,2.4-.2,3.7a5.11,5.11,0,0,0,1.3,3.7c1.6,1.7,3.8,1.8,6.6.2a72.78,72.78,0,0,0,11.6-8.9,80.63,80.63,0,0,0,11.8-13,1.13,1.13,0,0,1,1.5-.4c.6.3.9.5.9.8a1.61,1.61,0,0,1-.3.9,67.5,67.5,0,0,1-8.6,10.9"/><path class="cls-2" d="M915.8,706.23a91.91,91.91,0,0,1,14.8-10.8,51,51,0,0,1,12.1-5.6,37.32,37.32,0,0,1,8.8-1.2,12.83,12.83,0,0,1,8.2,2.9q21.9-50.85,41.8-50.8c4.5,0,7.5,1.3,9.1,3.8a7,7,0,0,1,1.2,3.4c0,2.7-1.1,6-3.4,10.1a65.77,65.77,0,0,1-10.6,13.5,236,236,0,0,1-20.6,18.1c-9,7.2-13.9,11.2-14.9,12.1a163.22,163.22,0,0,0-8,22.9c-1.9,7.4-2.9,12.8-2.9,16.4a17,17,0,0,0,1.9,8.6,4.06,4.06,0,0,0,2.9,2.5,4.27,4.27,0,0,0,3.3-.5l2.1-1.5a5.67,5.67,0,0,1,1.8-1.2c.7-.4,1.2-.5,1.5-.2s.3.8-.2,1.8a29.77,29.77,0,0,1-2.3,2.7,10.82,10.82,0,0,1-6,1.8,33.89,33.89,0,0,1-4.5-.2c-5.1-.8-7.7-4.5-7.7-11.2a55.83,55.83,0,0,1,2.6-17.7c2.3-7.5,4.5-13.6,6.4-18.5-17.1,19.8-29.1,29.7-36.3,29.7a13.29,13.29,0,0,1-5.5-1.5,13.84,13.84,0,0,1-5-4.3,9.94,9.94,0,0,1-2.1-6,14.34,14.34,0,0,1,1.4-6.1,38.45,38.45,0,0,1,10.1-13m42.6-12a16.8,16.8,0,0,0-6.7-1c-3.2,0-7.3,1.3-12.4,3.9a71,71,0,0,0-14.3,9.8,56,56,0,0,0-9.8,11.9c-2.8,4.4-4.2,7.7-4.2,9.7,0,3.9,1.1,5.9,3.4,5.9s5.6-1.8,10.2-5.4a326.5,326.5,0,0,0,31.7-29.4Zm46.8-40.3a15.1,15.1,0,0,0,2.1-6.5c0-1.8-.8-2.6-2.3-2.6s-3.6,1-6.1,2.9c-11.7,9-22.3,23.9-31.8,44.9a137.69,137.69,0,0,0,21.7-17.9c7.5-7.5,13-14.4,16.4-20.8"/><path class="cls-2" d="M1037.8,717.83c1.9-3.9,2.9-6.9,2.9-9.1a14.09,14.09,0,0,0-.7-5,2.59,2.59,0,0,1,.6-3.1,3.89,3.89,0,0,1,3.4-1c2.1.5,3.2,2.9,3.2,7.2s-2.5,9.9-7.5,16.8c.1,2.9,1.6,4.3,4.5,4.3s7.2-3.1,13.1-9.3c2.8-3.2,4.5-5.3,5.2-6.2s1.3-1.3,1.8-1,.8.5.8.7c0,1.1-1.9,3.8-5.8,8.3-6.1,7.5-11.4,11.2-16.1,11.2a6.76,6.76,0,0,1-6.6-4c-2.1,2.2-4.2,4.3-6.2,6.2a21,21,0,0,1-13.9,5.3,11.5,11.5,0,0,1-7.2-2.1c-3.7-2.2-5.5-6.2-5.5-12,0-6.3,2.1-12.6,6.4-19.2a49,49,0,0,1,8.6-10.1c5.2-4.6,10.2-6.9,14.9-6.9a13.32,13.32,0,0,1,3.4.5c3.2,1.1,4.8,3.1,4.8,6.1,0,2.5-.6,3.7-1.9,3.7-.5-.2-.8-1-.8-2.3,0-1.9-1.1-2.9-3.2-2.9q-5.55,0-14.4,10.2c-5.9,6.8-9.4,13.7-10.6,20.6a25.61,25.61,0,0,0-.3,3.9,13,13,0,0,0,1.4,5c1,1.9,2.7,2.8,5.4,2.8s5.5-1.2,8.5-3.5a39,39,0,0,0,8.3-8.9l-.5-1a4.81,4.81,0,0,1,.6-4.2,3.15,3.15,0,0,1,3.4-1"/><path class="cls-2" d="M1062.4,737c-1.4,1.6-1.7,2.8-.9,3.8a3.19,3.19,0,0,0,2.7,1.4,10.59,10.59,0,0,0,3.1-.5,33.41,33.41,0,0,0,13.3-8.2c4.3-4.1,6.5-8.3,6.5-12.5,0-2.3-2.6-4.9-7.8-7.7l-4.2-2.2c-2.9-1.9-4.7-3.8-5.4-5.8-1.5,2.6-3.9,6.2-7.2,11-.8.9-1.5,1-2.1.6a1.4,1.4,0,0,1-.2-2c4.4-6,7.2-11,8.6-15,.8-5.9,5-11.1,12.8-15.8s14.8-7,21.2-7c4.1,0,6.9.7,8.6,2.2s2.5,2.9,2.5,4.2a13.06,13.06,0,0,1-1.2,4.8,12.65,12.65,0,0,1-4.9,5.1,1,1,0,0,1-1.4-.1c-.1-.1-.1-.2-.2-.3-.2-.6.2-1.5,1.4-2.6a8.68,8.68,0,0,0,2.2-4.5c.3-1.9-.5-3.1-2.6-3.5h-.9c-4.2,0-9.4,1.6-15.6,4.7a37.79,37.79,0,0,0-14.6,12,9.13,9.13,0,0,0-2.1,5.5c0,1.9,1.3,3.5,3.8,5,1.1.6,2.9,1.7,5.4,3a60,60,0,0,1,5.4,3,22.85,22.85,0,0,1,3.8,3,6.58,6.58,0,0,1,2.3,3.8c.5,3.2-1,6.7-4.5,10.6-5,5.5-12.5,9.4-22.4,11.7a30.84,30.84,0,0,1-6.8.8,4.72,4.72,0,0,1-4.7-2.6,3.51,3.51,0,0,1-.5-2c0-.9.8-2.3,2.6-4.4a24.15,24.15,0,0,1,7.7-4.7.8.8,0,0,1,1,1c-.1.3-.7.7-1.7,1.2a9.52,9.52,0,0,0-3.3,3"/><path class="cls-2" d="M983.9,691.13c2.7,0,4.3.9,4.8,2.6a4,4,0,0,1-.4,2.8,12.9,12.9,0,0,0-1,2.2c-.2.5-.4,1-.5,1.3-.5,1.1-1.1,2.1-1.6,3-6.1,12.1-9.3,19.9-9.6,23.2-.1,1.2-.2,2.4-.2,3.7a5.11,5.11,0,0,0,1.3,3.7c1.5,1.7,3.6,1.8,6.4.3s6.6-4.5,11.6-8.9a83.59,83.59,0,0,0,12.1-13.1,1,1,0,0,1,1.4-.4c.5.3.8.5.8.8a1.61,1.61,0,0,1-.3.9,66.32,66.32,0,0,1-8.6,11c-6.8,7.3-12.5,11.9-17.1,13.6a19.11,19.11,0,0,1-6.7,1.4,8.21,8.21,0,0,1-8.5-6.1,12.41,12.41,0,0,1-.3-2.7c0-3.7,1.7-9.4,5.1-16.9-.5,1.2-2.6,3.8-6.2,8-1,1.1-1.7,1.1-2.2,0a2.92,2.92,0,0,1-.2-.9,3.51,3.51,0,0,1,.6-1.4c5.2-6.5,9.3-12,12.3-16.4a2.58,2.58,0,0,1,.3-2.1c2.1-6,4-9.1,5.6-9.4Zm15.3-14.5-.8,3.4a6.9,6.9,0,0,1-1.4,3q-1.35,2.1-2.1,2.1c-3,0-4.5-.7-4.5-2.2q0-.45,4.5-3.9l1.8-1.4q1.65-1.5,2.1-1.5c.2,0,.4.1.4.3v.2"/></g></g></g></svg>